<svg id="frame2-line2a.svg" xmlns="http://www.w3.org/2000/svg" width="160" height="60" viewBox="0 0 160 60">
  <defs>
    <style>
      .cls-1 {
        fill: red;
        opacity: 0.25;
      }

      .cls-2 {
        fill: #fff;
        fill-rule: evenodd;
      }
    </style>
  </defs>
  
  <path id="letter" class="cls-2" d="M91.568,282.546a6.01,6.01,0,0,0-1.517-4.188,4.951,4.951,0,0,0-3.836-1.676,5.254,5.254,0,0,0-4,1.659,6.408,6.408,0,0,0,.012,8.4,5.343,5.343,0,0,0,4.047,1.653,6.069,6.069,0,0,0,4.814-2.1l-1.347-1.39a4.8,4.8,0,0,1-3.373,1.46,3.336,3.336,0,0,1-2.43-.946,3.693,3.693,0,0,1-1.1-2.395h8.7a4.378,4.378,0,0,0,.023-0.478h0Zm-3.485-3.189a3.162,3.162,0,0,1,1.107,1.752H83.053a3.218,3.218,0,0,1,1.177-1.764,3.186,3.186,0,0,1,1.985-.677A2.9,2.9,0,0,1,88.084,279.357Z" transform="translate(0 -254)"/>
  <path id="letter-2" data-name="letter" class="cls-2" d="M75.23,288.163l4.9-11.247H77.795L74.457,284.6l-3.326-7.685H68.752l4.9,11.247H75.23Z" transform="translate(0 -254)"/>
  <path id="letter-3" data-name="letter" class="cls-2" d="M62.414,288.4a5.7,5.7,0,0,0,5.833-5.851,5.708,5.708,0,0,0-1.663-4.188,6.025,6.025,0,0,0-8.34,0,6.1,6.1,0,0,0,0,8.369A5.645,5.645,0,0,0,62.414,288.4Zm0-9.565a3.331,3.331,0,0,1,2.548,1.074,3.971,3.971,0,0,1,0,5.273,3.57,3.57,0,0,1-5.1,0,3.971,3.971,0,0,1,0-5.273A3.331,3.331,0,0,1,62.414,278.832Z" transform="translate(0 -254)"/>
  <path id="letter-4" data-name="letter" class="cls-2" d="M35.549,288.163h2.272v-7.731a5.036,5.036,0,0,1,1.388-1.133A3.562,3.562,0,0,1,41,278.832a2.9,2.9,0,0,1,1.218.262,2.728,2.728,0,0,1,.961.719,3.378,3.378,0,0,1,.644,2.254v6.1H46.1v-5.746a9.545,9.545,0,0,0-.187-1.985,4.661,4.661,0,0,1,3.432-1.6,2.645,2.645,0,0,1,2.108.981,3.378,3.378,0,0,1,.644,2.254v6.1h2.284v-5.746a8.609,8.609,0,0,0-.252-2.283,4.4,4.4,0,0,0-.779-1.559,5.012,5.012,0,0,0-1.763-1.39,5.124,5.124,0,0,0-2.243-.5,5.426,5.426,0,0,0-2.407.491,7.142,7.142,0,0,0-1.892,1.378,5.322,5.322,0,0,0-1.751-1.366,5,5,0,0,0-2.231-.5,4.649,4.649,0,0,0-1.968.427,4.16,4.16,0,0,0-1.347.893v-1.086h-2.2v11.247Z" transform="translate(0 -254)"/>
</svg>
