<svg xmlns="http://www.w3.org/2000/svg" width="70" height="60"><path d="M.731 34.315a2.816 2.816 0 01.14-3.9l.909-.907a.451.451 0 000-.638l-.987-.985a2.74 2.74 0 010-3.88 2.752 2.752 0 013.887 0l4.408 4.4a1.108 1.108 0 010 1.568l-4.411 4.4a2.752 2.752 0 01-3.946-.058zm27.161-15.346a2.06 2.06 0 002.908 0L43.587 6.202a2.109 2.109 0 00.2-2.816 2.06 2.06 0 00-3.046-.15L29.77 14.186a.6.6 0 01-.847 0l-10.97-10.95a2.06 2.06 0 00-3.045.15 2.11 2.11 0 00.2 2.817zm-8.108 3.57a2.06 2.06 0 002.856.051 2.124 2.124 0 00-.016-3.024L11.461 8.423a2.06 2.06 0 00-3.045.149 2.109 2.109 0 00.2 2.816zm8.776-13.47a1.112 1.112 0 001.571 0l4.411-4.4A2.74 2.74 0 0034.481.73a2.828 2.828 0 00-3.908.14l-.909.907a.453.453 0 01-.639 0l-.987-.985a2.752 2.752 0 00-3.887 0 2.74 2.74 0 000 3.88zm7.14 13.7a1.849 1.849 0 002.937.028L50.1 11.358a2.109 2.109 0 00.2-2.816 2.06 2.06 0 00-3.045-.149l-11.525 11.5a2.046 2.046 0 00-.03 2.876zm18.424 1.232l-4.408 4.4a1.108 1.108 0 000 1.568l4.411 4.4a2.752 2.752 0 003.946-.061 2.816 2.816 0 00-.14-3.9l-.909-.907a.451.451 0 010-.638l.987-.985a2.74 2.74 0 000-3.88 2.752 2.752 0 00-3.889.007zm7.01 27.2a43.7 43.7 0 01-13.073-6.932 78.7 78.7 0 01-10.6-10.182 2.056 2.056 0 00-3.161 2.629 81.433 81.433 0 0011.228 10.793 47.4 47.4 0 0014.461 7.641 2.054 2.054 0 101.143-3.945zm-30.33-12a2.06 2.06 0 00-2.909 0L15.114 51.962a2.124 2.124 0 00-.016 3.024 2.06 2.06 0 002.856-.051l10.97-10.951a.6.6 0 01.847 0l10.97 10.951a2.06 2.06 0 003.045-.149 2.109 2.109 0 00-.2-2.816zm37.456 6.3a52.652 52.652 0 01-13.335-6.182c-4.084-2.638-8.3-7.149-10.491-9.661a.594.594 0 01.03-.813l11.124-11.1a2.051 2.051 0 00-.15-3.04 2.119 2.119 0 00-2.822.2L39.829 27.669a2.051 2.051 0 00-.155 2.73c.266.334 6.591 8.225 13.015 12.374a56.187 56.187 0 0014.51 6.7 2.054 2.054 0 101.059-3.965zm-38.126 3.353a1.112 1.112 0 00-1.571 0l-4.411 4.4a2.74 2.74 0 00.061 3.939 2.828 2.828 0 003.908-.14l.909-.907a.452.452 0 01.639 0l.987.985a2.752 2.752 0 003.887 0 2.74 2.74 0 000-3.88zm-5.918-14.471a2.06 2.06 0 00-3.045-.149L8.292 47.089a2.053 2.053 0 00-.085 2.834 2.1 2.1 0 002.985.079l12.826-12.8a2.109 2.109 0 00.198-2.819zm-4.61-5.261a2.052 2.052 0 00-.6-1.452L6.155 14.845a2.06 2.06 0 00-3.045.149 2.109 2.109 0 00.2 2.816l10.906 10.889a.6.6 0 010 .845l-10.9 10.882A2.124 2.124 0 003.3 43.45a2.06 2.06 0 002.856-.051L19 30.569a2.052 2.052 0 00.605-1.447zm27.749 27.3h-1.243v-.837h3.429v.835H48.3v3.315h-.946v-3.314zm3.064-.835h1l1.094 1.752 1.087-1.754h.972v4.151h-.887v-2.8l-1.147 1.819h-.081l-1.147-1.819v2.8h-.892v-4.151z" fill-rule="evenodd" fill="#fff"/><path d="M34.481 25.16a2.828 2.828 0 00-3.908.14l-.909.907a.453.453 0 01-.639 0l-.987-.985a2.752 2.752 0 00-3.887 0 2.74 2.74 0 000 3.88l4.408 4.4a1.112 1.112 0 001.571 0l4.411-4.4a2.74 2.74 0 00-.06-3.942z" fill="#7baed4" fill-rule="evenodd"/></svg>