<svg id="frame2-line1a.svg" xmlns="http://www.w3.org/2000/svg" width="320" height="90" viewBox="0 0 320 90">
  <defs>
    <style>
      .cls-1 {
        fill: red;
        opacity: 0.25;
      }

      .cls-2 {
        fill: #fff;
        fill-rule: evenodd;
      }
    </style>
  </defs>
  
  <path id="letter" class="cls-2" d="M236.2,46.773a7.847,7.847,0,0,0-1.981-5.47,6.468,6.468,0,0,0-5.011-2.19,6.867,6.867,0,0,0-5.226,2.167,7.688,7.688,0,0,0-2.042,5.493A7.625,7.625,0,0,0,224,52.259a6.977,6.977,0,0,0,5.286,2.159,7.927,7.927,0,0,0,6.289-2.747l-1.76-1.816a6.268,6.268,0,0,1-4.406,1.907,4.352,4.352,0,0,1-3.175-1.236A4.82,4.82,0,0,1,224.8,47.4h11.369a5.816,5.816,0,0,0,.03-0.626h0Zm-4.552-4.166A4.12,4.12,0,0,1,233.1,44.9h-8.018a4.2,4.2,0,0,1,1.538-2.3,4.159,4.159,0,0,1,2.594-.885A3.785,3.785,0,0,1,231.65,42.608Z"/>
  <path id="letter-2" data-name="letter" class="cls-2" d="M214.579,54.113l6.4-14.694H217.93l-4.36,10.04-4.346-10.04h-3.106l6.4,14.694h2.065Z"/>
  <path id="letter-3" data-name="letter" class="cls-2" d="M197.559,54.418a7.443,7.443,0,0,0,7.62-7.645,7.451,7.451,0,0,0-2.173-5.47,7.87,7.87,0,0,0-10.894,0,7.962,7.962,0,0,0,0,10.933A7.37,7.37,0,0,0,197.559,54.418Zm0-12.5a4.35,4.35,0,0,1,3.328,1.4,5.19,5.19,0,0,1,0,6.889,4.665,4.665,0,0,1-6.656,0,5.19,5.19,0,0,1,0-6.889A4.351,4.351,0,0,1,197.559,41.921Z"/>
  <path id="letter-4" data-name="letter" class="cls-2" d="M162.2,54.113h2.968v-10.1a6.588,6.588,0,0,1,1.814-1.48,4.66,4.66,0,0,1,2.333-.61,3.773,3.773,0,0,1,1.591.343,3.562,3.562,0,0,1,1.255.938,4.415,4.415,0,0,1,.842,2.945v7.965h2.983V46.605a12.476,12.476,0,0,0-.244-2.594,6.089,6.089,0,0,1,4.483-2.09,3.454,3.454,0,0,1,2.754,1.282,4.415,4.415,0,0,1,.842,2.945v7.965h2.984V46.605a11.261,11.261,0,0,0-.329-2.983,5.769,5.769,0,0,0-1.018-2.037,6.547,6.547,0,0,0-2.3-1.816,6.7,6.7,0,0,0-2.93-.656,7.085,7.085,0,0,0-3.144.641,9.3,9.3,0,0,0-2.472,1.8,6.946,6.946,0,0,0-2.287-1.785,6.54,6.54,0,0,0-2.915-.656,6.073,6.073,0,0,0-2.571.557,5.43,5.43,0,0,0-1.759,1.167V39.419H162.2V54.113Z"/>
</svg>
