<svg xmlns="http://www.w3.org/2000/svg" width="52" height="16"><path data-name="learn more" d="M7.387 10.707c.128 0 .193-.044.193-.132v-.026a.426.426 0 00-.18-.233.442.442 0 01-.18-.338V4.271a.165.165 0 00-.083-.154.264.264 0 00-.232.013l-.887.439a.22.22 0 00-.149.158v.027a.533.533 0 00.162.22.527.527 0 01.162.377v4.627a.446.446 0 01-.162.334.4.4 0 00-.162.237v.026q0 .132.184.132h1.335zm3.591-.83a1.37 1.37 0 01-.72.18 1.327 1.327 0 01-.869-.3 1.71 1.71 0 01-.535-.829 4.2 4.2 0 001.273-.044 2.321 2.321 0 001.023-.474 1.064 1.064 0 00-.062-1.694 1.943 1.943 0 00-1.163-.307A2.079 2.079 0 007.8 8.569a2.2 2.2 0 00.606 1.615 2.12 2.12 0 001.58.615 1.7 1.7 0 001.194-.408 1.5 1.5 0 00.52-.891.131.131 0 00-.1-.158.161.161 0 00-.18.07 1.123 1.123 0 01-.442.465zM10.332 7a1.065 1.065 0 01.066 1.216.837.837 0 01-.465.268 4.151 4.151 0 01-1.168.053 3.247 3.247 0 01-.026-.421 1.583 1.583 0 01.29-.97.89.89 0 01.746-.391.706.706 0 01.557.245zm6.089-.211a.184.184 0 00-.158-.184l-.763-.156a.313.313 0 00-.237.018.18.18 0 00-.088.167v.325a1.579 1.579 0 00-1.247-.553 1.96 1.96 0 00-1.471.615 2.4 2.4 0 00.009 3.169 1.962 1.962 0 001.444.606 1.452 1.452 0 001.264-.606v.35a.147.147 0 00.167.167h.913a.122.122 0 00.149-.123v-.027a.452.452 0 00-.167-.228.475.475 0 01-.167-.351V7.432a.484.484 0 01.088-.29 1.068 1.068 0 01.176-.2.2.2 0 00.088-.127v-.024zM13.2 9.8a3.1 3.1 0 01-.338-1.572 1.826 1.826 0 01.307-1.093.939.939 0 01.79-.4 1.02 1.02 0 01.782.373 1.2 1.2 0 01.334.812v1.4a1.158 1.158 0 01-.285.834.873.873 0 01-.645.3A1.082 1.082 0 0113.2 9.8zM18 7.274v-.685q0-.272-.255-.149l-.86.4a.242.242 0 00-.158.185v.026a.4.4 0 00.189.224.427.427 0 01.189.347v2.362a.449.449 0 01-.167.342.41.41 0 00-.167.228v.035q0 .123.184.123h1.361q.184 0 .184-.123v-.04a.417.417 0 00-.2-.228.425.425 0 01-.2-.342V8.1a1.715 1.715 0 01.158-.773.49.49 0 01.448-.316.34.34 0 01.264.105.49.49 0 01.123.237.459.459 0 00.132.237.4.4 0 00.3.105.451.451 0 00.456-.553.707.707 0 00-.215-.527.811.811 0 00-.593-.211 1.15 1.15 0 00-1.173.87zm6.251 1.036a2.168 2.168 0 00-.527-1.44 1.554 1.554 0 00-1.141-.465 1.574 1.574 0 00-.8.2 1.339 1.339 0 00-.535.562V6.6a.2.2 0 00-.066-.171.211.211 0 00-.206.013l-.852.413a.209.209 0 00-.158.158v.026a.181.181 0 00.1.145 1.266 1.266 0 01.2.171.378.378 0 01.1.272V9.98a.441.441 0 01-.176.342.409.409 0 00-.176.228v.035q0 .132.184.132h1.361c.129 0 .193-.044.193-.132v-.036a.411.411 0 00-.18-.228.437.437 0 01-.18-.342V7.915a1.179 1.179 0 01.255-.786.829.829 0 01.667-.3q.86 0 .922 1.449l.088 1.694a.439.439 0 01-.154.347.424.424 0 00-.163.233v.035q0 .132.193.132h1.282q.193 0 .193-.132v-.038a.429.429 0 00-.154-.233.513.513 0 01-.163-.347zm9.236.035a2.323 2.323 0 00-.514-1.479 1.5 1.5 0 00-1.128-.461 1.552 1.552 0 00-.834.228 1.312 1.312 0 00-.535.641 1.6 1.6 0 00-.61-.641 1.7 1.7 0 00-.873-.228 1.421 1.421 0 00-.733.193 1.454 1.454 0 00-.522.518V6.6a.193.193 0 00-.07-.171.22.22 0 00-.211.013l-.9.413a.209.209 0 00-.158.158v.026a.192.192 0 00.1.149 1.33 1.33 0 01.193.176.375.375 0 01.1.263V9.98a.453.453 0 01-.176.347.424.424 0 00-.176.233v.035q0 .123.193.123h1.361q.184 0 .184-.123v-.038a.424.424 0 00-.178-.232.452.452 0 01-.176-.347l-.009-2.107a1.179 1.179 0 01.272-.751.822.822 0 01.65-.294.781.781 0 01.663.369 1.766 1.766 0 01.259 1.027v1.756a.478.478 0 01-.154.347.428.428 0 00-.154.233v.035q0 .123.193.123h1.276q.184 0 .184-.123v-.036a.427.427 0 00-.154-.233.478.478 0 01-.154-.347V8.283a2.19 2.19 0 00-.035-.421 1.181 1.181 0 01.268-.742.773.773 0 01.61-.294.749.749 0 01.663.351 2.328 2.328 0 01.268 1.142l.088 1.659a.442.442 0 01-.149.347.426.426 0 00-.158.233v.035q0 .123.184.123h1.291q.184 0 .185-.123v-.036a.445.445 0 00-.154-.237.53.53 0 01-.163-.351zm4.451 1.826a2.164 2.164 0 00.588-1.545 2.137 2.137 0 00-.649-1.576 2.267 2.267 0 00-1.667-.65 2.132 2.132 0 00-1.545.615 2.054 2.054 0 00-.632 1.536 2.169 2.169 0 00.65 1.58 2.321 2.321 0 001.73.659 2 2 0 001.527-.619zm-2.454-.4a2.955 2.955 0 01-.417-1.554 1.844 1.844 0 01.277-1.093.879.879 0 01.751-.382 1.16 1.16 0 011 .659 3.009 3.009 0 01.4 1.589 1.922 1.922 0 01-.263 1.084.8.8 0 01-.685.391 1.221 1.221 0 01-1.061-.698zm4.57-2.494v-.688q0-.272-.255-.149l-.86.4a.243.243 0 00-.158.185v.026a.4.4 0 00.189.224.427.427 0 01.189.347v2.362a.45.45 0 01-.167.342.409.409 0 00-.167.228v.035c0 .082.062.123.184.123h1.361q.185 0 .184-.123v-.04a.417.417 0 00-.2-.228.425.425 0 01-.2-.342V8.1a1.712 1.712 0 01.158-.773.49.49 0 01.448-.316.34.34 0 01.263.105.488.488 0 01.123.237.458.458 0 00.132.237.4.4 0 00.3.105.451.451 0 00.456-.553.707.707 0 00-.215-.527.811.811 0 00-.593-.211 1.15 1.15 0 00-1.168.869zm5.057 2.6a1.37 1.37 0 01-.72.18 1.327 1.327 0 01-.869-.3 1.71 1.71 0 01-.536-.829 4.2 4.2 0 001.273-.044 2.32 2.32 0 001.023-.474 1.064 1.064 0 00-.061-1.694 1.943 1.943 0 00-1.163-.307 2.079 2.079 0 00-2.125 2.16 2.2 2.2 0 00.606 1.615 2.121 2.121 0 001.58.615 1.7 1.7 0 001.194-.408 1.5 1.5 0 00.518-.882.132.132 0 00-.1-.158.161.161 0 00-.18.07 1.123 1.123 0 01-.438.456zM44.468 7a1.065 1.065 0 01.066 1.216.837.837 0 01-.465.268 4.15 4.15 0 01-1.168.053 3.264 3.264 0 01-.026-.421 1.583 1.583 0 01.29-.97.891.891 0 01.747-.391.706.706 0 01.556.245z" fill="#1f2552" fill-rule="evenodd"/></svg>