<svg xmlns="http://www.w3.org/2000/svg" width="390" height="130"><path data-name="A CHANCE TO WIN" d="M70.082 78.79l8.067-.007-3.312-22.145-7.767.007-13.256 22.16 7.967-.008 1.837-3.64h6.257zm-3.907-8.7l3.068-6.078.345 6.075zm29.522 9.213a18.107 18.107 0 005.929-1.018l2.48-6.425a14.465 14.465 0 01-5.417 1.112c-3.133 0-4.079-1.42-3.21-5.281.877-3.892 2.471-5.349 5.605-5.352a8.234 8.234 0 014.4 1.167l1.018-6.3a13.627 13.627 0 00-5.577-1.134c-7.234.006-11.665 4-13.383 11.624s.921 11.616 8.158 11.609zm26.1-22.709l-1.8 8.007h-4.567l1.8-8.007-7.734.007-4.996 22.158 7.734-.007 1.846-8.2h4.567l-1.846 8.2 7.734-.007 4.989-22.152zm20.224 22.13l8.068-.007-3.313-22.145-7.767.007-13.26 22.161 7.968-.007 1.837-3.64 6.257-.006zm-3.907-8.7l3.068-6.078.345 6.075zm31.875-13.476l-2.508 11.14-4.526-11.133-6.667.006-4.988 22.157 6.834-.006 2.508-11.14 4.525 11.133 6.668-.006 4.988-22.152zm14.656 22.673a18.107 18.107 0 005.929-1.018l2.48-6.425a14.459 14.459 0 01-5.416 1.112c-3.134 0-4.08-1.42-3.211-5.281.877-3.892 2.471-5.349 5.605-5.352a8.231 8.231 0 014.4 1.167l1.019-6.3A13.637 13.637 0 00189.872 56c-7.234.006-11.665 4-13.383 11.624s.919 11.608 8.152 11.602zm8.806-.546l16.9-.015 2.283-5.7-10.168.009.592-2.627 8.334-.007 1.282-5.7-8.334.007.549-2.437 9.7-.009.916-5.7-17.068.015zm49.994-22.193l-19.335.017-1.41 6.272 5.8-.005-3.577 15.887 7.734-.007 3.577-15.887 5.8-.005zm6.422 22.68c7.034-.006 11.235-3.268 13.116-11.623s-.851-11.611-7.885-11.6-11.235 3.269-13.117 11.624.848 11.611 7.882 11.604zm1.382-6.139c-1.7 0-2.317-1.105-1.334-5.473.991-4.4 2.1-5.475 3.8-5.477s2.325 1.074 1.334 5.472c-.987 4.373-2.103 5.482-3.804 5.483zm44.6-16.587L291.4 69.069l-1.923-12.623h-2.134l-7.665 12.726 1.231-12.72-7.834.007-.688 22.148 7.734-.006 5.2-8.9 1.164 8.89 7.734-.007 9.256-22.156zM300 78.585l7.8-.007 4.989-22.153-7.8.007zm29.464-22.174l-2.508 11.139-4.525-11.133-6.667.006-4.989 22.152 6.834-.006 2.509-11.139 4.525 11.133 6.667-.006L336.3 56.4z" fill-rule="evenodd" fill="#fff"/></svg>