<svg xmlns="http://www.w3.org/2000/svg" width="390" height="130"><path data-name="EVERY PACK IS" d="M58.337 49.893l20.184-.018 2.726-6.8-12.142.011.706-3.137 9.953-.009 1.532-6.8-9.953.009.657-2.917 11.584-.01 1.094-6.8-20.382.018zM103.755 23.4l-7.249 15.045-.514-15.035-9.833.009 3.159 26.446 9.117-.008 15.034-26.463zm5.27 26.445l20.184-.018 2.726-6.8-12.142.011.707-3.138 9.952-.009 1.532-6.8-9.953.009.656-2.91 11.584-.01 1.094-6.8-20.382.018zM157.6 49.8l-2.69-9.973a10.465 10.465 0 005.538-7.448c1.277-5.669-1.35-9.029-8.436-9.023l-13.1.012-5.958 26.454 9.077-.008 1.923-8.541h2.23l1.619 8.538zm-11.146-19.634h3.185c1.513 0 2.042.83 1.71 2.3a2.628 2.628 0 01-2.748 2.307h-3.185zm42.146-6.839l-9.872.009-5.3 9.224-1.148-9.218-10.072.009 4.679 17.225-2.082 9.224 9.316-.008 2.068-9.183zm3.559 26.446l9.077-.008 1.787-7.936h3.9c7.166-.006 11.364-3.449 12.675-9.269s-1.339-9.256-8.5-9.25l-12.978.012zm12.4-14.747l1.106-4.913h3.145c1.553 0 2.057.943 1.716 2.455a2.776 2.776 0 01-2.822 2.459zm28.462 14.71l9.634-.009-3.955-26.446-9.276.008-15.83 26.463 9.514-.009 2.194-4.347 7.472-.007zm-4.672-10.386l3.663-7.258.412 7.254zm26.222 11.01a21.637 21.637 0 007.08-1.215l2.961-7.673a17.266 17.266 0 01-6.468 1.328c-3.742 0-4.872-1.7-3.834-6.307 1.047-4.648 2.951-6.388 6.694-6.392a9.832 9.832 0 015.258 1.393l1.216-7.52a16.285 16.285 0 00-6.66-1.354c-8.639.008-13.931 4.773-15.982 13.881s1.096 13.866 9.735 13.859zm25.763-.665l10.271-.009-4.321-13.863 9.522-12.591-9.873.009-6.472 9.83h-1.394l2.213-9.826-9.236.008-5.957 26.454 9.236-.008 2.264-10.053h1.433zm19.628-.017l9.315-.008 5.958-26.455-9.316.008zm23.045.622c8.042-.007 12.243-3.109 13.519-8.778 1.081-4.8-.478-7.065-5.185-8.081l-3.452-.753c-1.707-.376-2.219-.754-2.006-1.7.2-.869.841-1.437 2.831-1.438a25.5 25.5 0 018.56 1.579l1.2-7.256a27.653 27.653 0 00-9.018-1.314c-7.723.007-11.956 3.071-13.2 8.589-1.064 4.724.4 7.065 5.288 8.157l3.523.79c1.667.376 2.051.792 1.872 1.585-.213.945-.986 1.55-3.016 1.552a37.81 37.81 0 01-10.1-1.616l-.488 7.293a33.887 33.887 0 009.672 1.391z" fill-rule="evenodd" fill="#fff"/></svg>