<svg xmlns="http://www.w3.org/2000/svg" width="600" height="200"><path data-name="GEAR AND PRIZES" d="M96.165 166.711a46.854 46.854 0 0012.379-1.952l3.949-17.571-10.36.009-2.28 10.145h-.714c-3.981 0-5.2-2.276-3.817-8.44 1.375-6.116 3.98-8.4 9.134-8.4a16.761 16.761 0 018.1 1.886l1.526-9.513a26.277 26.277 0 00-9.905-1.787c-11.431.01-18.369 6.131-21 17.829s1.557 17.804 12.988 17.794zm16.258-.839l25.874-.024 3.5-8.738-15.566.014.906-4.029 12.758-.011 1.964-8.737-12.758.012.84-3.738 14.851-.013 1.4-8.736-26.129.023zm52.765-.048l12.35-.011-5.071-33.965-11.89.011-20.294 33.988 12.2-.011 2.813-5.584 9.579-.008zm-5.981-13.34l4.7-9.321.528 9.317zm51.775 13.3l-3.448-12.808a13.434 13.434 0 007.1-9.566c1.637-7.281-1.73-11.6-10.814-11.589l-16.79.015-7.637 33.977 11.636-.011 2.465-10.969h2.858l2.077 10.966zM196.7 140.561h4.083c1.939 0 2.617 1.065 2.192 2.958a3.371 3.371 0 01-3.523 2.963h-4.083zm49.037 25.191l12.35-.011-5.071-33.965-11.89.011-20.294 33.988 12.2-.011 2.813-5.584 9.579-.008zm-5.981-13.34l4.7-9.321.528 9.317zm48.8-20.668l-3.84 17.086-6.928-17.076-10.207.009-7.637 33.977 10.462-.01 3.84-17.085 6.928 17.076 10.207-.009 7.637-33.977zm7.455 33.963l14.7-.013c10.87-.009 17.3-4.771 20.047-17s-1.54-16.983-12.41-16.973l-14.7.013zm13.891-9.135l3.535-15.727h2.858c2.7 0 3.733 1.549 2.315 7.859-1.407 6.262-3.145 7.865-5.85 7.867zm30.919 9.095l11.635-.01 2.291-10.193h5c9.186-.008 14.568-4.429 16.248-11.9s-1.716-11.887-10.9-11.879l-16.637.015zm15.89-18.94l1.418-6.31h4.032c1.99 0 2.636 1.211 2.2 3.153s-1.628 3.156-3.618 3.157zm48.378 18.883l-3.45-12.81a13.434 13.434 0 007.1-9.566c1.637-7.281-1.73-11.6-10.814-11.589l-16.79.015-7.635 33.978 11.636-.01 2.465-10.97h2.858l2.077 10.965zm-14.281-25.222h4.083c1.939 0 2.617 1.065 2.192 2.958a3.372 3.372 0 01-3.523 2.964h-4.083zm16.63 25.22l11.942-.011 7.637-33.977-11.942.011zm31.69-9.346l16.755-16.66 1.8-8.009-26.487.024-2.095 9.319 12.3-.011-16.755 16.66-1.8 8.009 26.639-.024 3.626-9.321zm14.819 9.3l25.874-.023 3.5-8.738-15.565.014.9-4.029 12.758-.011 1.964-8.737-12.758.011.84-3.737 14.851-.014 1.4-8.736-26.129.023zm43.562.786c10.309-.009 15.694-3.993 17.331-11.274 1.385-6.164-.614-9.074-6.647-10.379l-4.426-.967c-2.188-.483-2.844-.968-2.571-2.181.25-1.117 1.078-1.845 3.629-1.847a32.637 32.637 0 0110.974 2.028l1.533-9.319a35.391 35.391 0 00-11.56-1.688c-9.9.009-15.326 3.944-16.919 11.031-1.364 6.067.511 9.074 6.778 10.476l4.517 1.015c2.137.484 2.629 1.017 2.4 2.036-.273 1.214-1.264 1.991-3.867 1.993a48.359 48.359 0 01-12.952-2.075l-.626 9.367a43.38 43.38 0 0012.404 1.788z" fill="#fff" fill-rule="evenodd"/></svg>