<svg xmlns="http://www.w3.org/2000/svg" width="640" height="100"><path data-name="A CHANCE TO WIN" d="M333.049 50.455h3.549l-1.457-9.76h-3.418l-5.831 9.767h3.5l.808-1.6h2.753zm-1.719-3.834l1.35-2.679.151 2.677h-1.5zm12.988 4.06a7.961 7.961 0 002.608-.449l1.091-2.832a6.357 6.357 0 01-2.383.49c-1.379 0-1.8-.626-1.412-2.328s1.087-2.358 2.465-2.359a3.615 3.615 0 011.937.514l.448-2.776a5.981 5.981 0 00-2.453-.5c-3.183 0-5.132 1.762-5.888 5.123s.404 5.121 3.587 5.118zM355.8 40.673l-.795 3.527h-2.01l.794-3.529h-3.4l-2.194 9.764h3.4l.812-3.613h2.009l-.816 3.615h3.4l2.2-9.767zm8.9 9.754h3.549l-1.457-9.761h-3.417l-5.832 9.767h3.5l.809-1.6h2.752zm-1.719-3.833l1.35-2.679.152 2.677h-1.5zM377 40.654l-1.1 4.91-1.99-4.907h-2.934l-2.194 9.764h3.006l1.1-4.91 1.991 4.907h2.933l2.194-9.764zm6.448 9.993a7.961 7.961 0 002.608-.449l1.091-2.832a6.355 6.355 0 01-2.383.49c-1.379 0-1.795-.626-1.412-2.328s1.087-2.358 2.465-2.359a3.622 3.622 0 011.938.514l.447-2.775a5.981 5.981 0 00-2.453-.5c-3.183 0-5.132 1.762-5.888 5.123s.403 5.119 3.586 5.116zm3.874-.241l7.435-.007 1-2.511h-4.473l.261-1.158h3.666l.564-2.511h-3.666l.241-1.074h4.268l.4-2.511-7.509.007zm21.993-9.782l-8.506.008-.621 2.762h2.552l-1.574 7h3.4l1.574-7h2.551zm2.825 10c3.095 0 4.943-1.441 5.771-5.123s-.375-5.118-3.47-5.115-4.942 1.441-5.77 5.123.374 5.115 3.468 5.112zm.609-2.706c-.748 0-1.02-.487-.587-2.412s.923-2.413 1.671-2.414 1.023.473.587 2.412-.92 2.411-1.672 2.411zm19.62-7.311l-1.955 5.566-.847-5.564h-.938l-3.372 5.609.543-5.608h-3.446l-.3 9.762h3.4l2.289-3.921.512 3.918h3.4l4.072-9.766zm1.828 9.76h3.432l2.195-9.764h-3.432zm12.962-9.773l-1.1 4.91-1.991-4.907h-2.933l-2.195 9.764h3.007l1.1-4.91 1.991 4.907h2.933l2.195-9.764z" fill-rule="evenodd" fill="#fff"/></svg>