<svg xmlns="http://www.w3.org/2000/svg" width="640" height="100"><path data-name="GEAR AND PRIZES" d="M329.716 63.4a13.4 13.4 0 003.54-.558l1.129-5.024h-2.962l-.652 2.9h-.2c-1.139 0-1.488-.651-1.092-2.414s1.138-2.4 2.612-2.4a4.79 4.79 0 012.315.539l.437-2.72a7.521 7.521 0 00-2.833-.511c-3.269 0-5.252 1.753-6 5.1s.438 5.088 3.706 5.088zm4.649-.24l7.4-.007 1-2.5h-4.451l.259-1.152h3.649l.561-2.5h-3.648l.24-1.069h4.247l.4-2.5-7.472.007zm15.089-.014h3.531l-1.45-9.712h-3.4l-5.8 9.719h3.488l.8-1.6h2.739zm-1.711-3.815l1.343-2.666.151 2.664h-1.494zm14.806 3.8l-.986-3.663a3.843 3.843 0 002.03-2.736c.468-2.082-.5-3.316-3.093-3.314h-4.8l-2.184 9.716h3.328l.7-3.137h.817l.594 3.136zm-4.084-7.212h1.167a.589.589 0 01.627.846.963.963 0 01-1.007.847h-1.168zm14.022 7.2h3.532l-1.45-9.712h-3.4l-5.8 9.719h3.487l.805-1.6h2.739zm-1.71-3.815l1.343-2.665.151 2.664h-1.494zm13.954-5.91l-1.1 4.886-1.98-4.88h-2.918l-2.184 9.716h2.992l1.1-4.886 1.981 4.883h2.918l2.184-9.716zm2.131 9.712h4.2c3.109 0 4.947-1.364 5.733-4.862s-.441-4.856-3.549-4.854h-4.2zm3.973-2.612l1.01-4.5h.818c.773 0 1.067.443.662 2.247s-.9 2.249-1.673 2.25h-.817zm8.841 2.6h3.327l.655-2.915h1.43c2.627 0 4.166-1.267 4.646-3.4s-.49-3.4-3.117-3.4h-4.757zm4.544-5.416l.4-1.8h1.153c.569 0 .754.346.629.9a1.018 1.018 0 01-1.034.9h-1.148zm13.834 5.4l-.986-3.663a3.843 3.843 0 002.03-2.736c.468-2.082-.5-3.316-3.093-3.314h-4.8l-2.184 9.716h3.328l.7-3.137h.817l.594 3.136zm-4.084-7.212h1.167a.589.589 0 01.627.846.963.963 0 01-1.007.847h-1.168zm4.755 7.212h3.415l2.184-9.716h-3.415zm9.062-2.672l4.791-4.764.515-2.29-7.574.007-.6 2.665h3.517l-4.791 4.764-.515 2.29 7.618-.007 1.037-2.665zm4.238 2.661l7.4-.007 1-2.5h-4.451l.259-1.152h3.648l.562-2.5h-3.649l.241-1.069h4.246l.4-2.5-7.472.007zm12.456.233c2.948 0 4.488-1.142 4.956-3.224.4-1.763-.175-2.595-1.9-2.968l-1.265-.276c-.626-.138-.814-.277-.735-.624.071-.319.308-.528 1.037-.528a9.332 9.332 0 013.138.58l.439-2.665a10.127 10.127 0 00-3.306-.483c-2.831 0-4.382 1.128-4.838 3.154-.39 1.735.146 2.595 1.938 3l1.292.29c.611.138.752.291.686.582-.078.347-.361.569-1.105.57a13.832 13.832 0 01-3.7-.593l-.179 2.678a12.4 12.4 0 003.542.507z" fill-rule="evenodd" fill="#fff"/></svg>