<svg xmlns="http://www.w3.org/2000/svg" width="320" height="130"><path data-name="A CHANCE TO WIN" d="M34.082 78.79l8.067-.007-3.312-22.145-7.767.007L17.814 78.8l7.967-.008 1.837-3.64h6.257zm-3.907-8.7l3.068-6.078.345 6.075zM59.7 79.3a18.106 18.106 0 005.928-1.018l2.48-6.425a14.455 14.455 0 01-5.416 1.112c-3.134 0-4.08-1.42-3.21-5.281.877-3.892 2.471-5.349 5.6-5.352a8.229 8.229 0 014.4 1.167l1.018-6.3a13.615 13.615 0 00-5.577-1.134c-7.234.006-11.666 4-13.383 11.624s.923 11.619 8.16 11.607zm26.1-22.709L84 64.597h-4.567l1.8-8.007-7.734.007L68.5 78.759l7.734-.007 1.846-8.2h4.567l-1.846 8.2 7.734-.007 4.989-22.152zm20.224 22.13l8.068-.007-3.313-22.145-7.767.007L89.749 78.74l7.967-.007 1.837-3.64 6.257-.006zm-3.906-8.7l3.067-6.077.345 6.074zm31.874-13.475l-2.508 11.139-4.526-11.133-6.667.006-4.991 22.16 6.834-.006 2.508-11.14 4.525 11.133 6.668-.006 4.988-22.152zm14.657 22.673a18.105 18.105 0 005.928-1.018l2.48-6.425a14.471 14.471 0 01-5.416 1.112c-3.134 0-4.08-1.42-3.211-5.281.877-3.892 2.472-5.349 5.6-5.352a8.225 8.225 0 014.4 1.167l1.019-6.3A13.654 13.654 0 00153.872 56c-7.234.007-11.665 4-13.383 11.624s.919 11.608 8.153 11.602zm8.805-.546l16.9-.015 2.283-5.7-10.168.009.592-2.627 8.334-.007 1.282-5.7-8.334.008.549-2.437 9.7-.009.916-5.7-17.068.016zm49.994-22.193l-19.335.018-1.411 6.266 5.8-.006-3.577 15.887 7.734-.007 3.577-15.887h5.8zm6.422 22.68c7.034-.006 11.235-3.268 13.116-11.623s-.851-11.611-7.885-11.605-11.235 3.269-13.117 11.624.845 11.618 7.879 11.611zm1.382-6.139c-1.7 0-2.317-1.105-1.334-5.472.991-4.4 2.1-5.476 3.8-5.478s2.325 1.074 1.334 5.473c-.99 4.374-2.106 5.483-3.807 5.484zm44.6-16.587L255.4 69.069l-1.923-12.623h-2.134l-7.665 12.726 1.231-12.72-7.834.007-.688 22.148 7.734-.006 5.2-8.9 1.164 8.89 7.734-.007 9.256-22.156zM264 78.585l7.8-.007 4.989-22.153-7.8.007zm29.464-22.174l-2.509 11.139-4.525-11.133-6.667.006-4.989 22.152 6.834-.006 2.509-11.139 4.525 11.133 6.667-.006L300.3 56.4z" fill-rule="evenodd" fill="#fff"/></svg>