<svg id="frame2-line2.svg" xmlns="http://www.w3.org/2000/svg" width="300" height="81" viewBox="0 0 300 81">
  <defs>
    <style>
      .cls-1 {
        fill: red;
        opacity: 0.25;
      }

      .cls-1, .cls-2 {
        fill-rule: evenodd;
      }

      .cls-2 {
        fill: #fff;
      }
    </style>
  </defs>
  
  <path id="letter" class="cls-2" d="M208.638,174.036a7.07,7.07,0,0,0-3.052.627,5.518,5.518,0,0,0-2.032,1.518v-1.973h-3.307v16.523h3.413V179.9a6.245,6.245,0,0,1,2.155-2.033,5.549,5.549,0,0,1,2.788-.746,7.321,7.321,0,0,1,1.2.12v-3.14a9.275,9.275,0,0,0-1.162-.069h0Zm1.285,21.619h2.34l4.327-9.145h-3.976Z" transform="translate(0 -140.938)"/>
  <path id="letter-2" data-name="letter" class="cls-2" d="M195.813,182.478a8.708,8.708,0,0,0-2.278-6.151,7.513,7.513,0,0,0-5.762-2.462,7.979,7.979,0,0,0-6.007,2.436,9.259,9.259,0,0,0,.017,12.345,8.116,8.116,0,0,0,6.078,2.428,9.207,9.207,0,0,0,7.231-3.088l-2.023-2.042A7.291,7.291,0,0,1,188,188.089a5.068,5.068,0,0,1-3.65-1.39,5.372,5.372,0,0,1-1.645-3.518h13.071a6.369,6.369,0,0,0,.035-0.7h0Zm-5.234-4.684a4.624,4.624,0,0,1,1.663,2.574h-9.219a4.721,4.721,0,0,1,1.768-2.591,4.849,4.849,0,0,1,2.982-.995A4.409,4.409,0,0,1,190.579,177.794Z" transform="translate(0 -140.938)"/>
  <path id="letter-3" data-name="letter" class="cls-2" d="M173.734,188.02a2.311,2.311,0,0,1-1.829-.738,3.592,3.592,0,0,1-.546-2.248v-7.823h5.05v-3h-5.05v-5.3h-3.43v5.3h-3.958v3h3.958v7.721a6.54,6.54,0,0,0,1.161,4.255,5.137,5.137,0,0,0,1.891,1.389,5.913,5.913,0,0,0,2.4.5,6.772,6.772,0,0,0,3.747-1.115l-1.337-2.54a4.02,4.02,0,0,1-2.059.6h0Z" transform="translate(0 -140.938)"/>
  <path id="letter-4" data-name="letter" class="cls-2" d="M161.4,183.962a3.981,3.981,0,0,0-1.319-1.441,9.786,9.786,0,0,0-1.786-.9,17.335,17.335,0,0,0-1.953-.626q-0.976-.249-1.786-0.506a4.139,4.139,0,0,1-1.319-.661,1.2,1.2,0,0,1-.51-0.969,1.721,1.721,0,0,1,.888-1.51,3.958,3.958,0,0,1,2.173-.566,6.692,6.692,0,0,1,3.747,1.2l1.654-2.3a9.063,9.063,0,0,0-5.612-1.818,8.422,8.422,0,0,0-2.261.3,7.341,7.341,0,0,0-2,.884,4.285,4.285,0,0,0-1.46,1.57,4.543,4.543,0,0,0-.545,2.239,4.181,4.181,0,0,0,.51,2.11,3.747,3.747,0,0,0,1.319,1.381,9.972,9.972,0,0,0,1.786.841,19.354,19.354,0,0,0,1.953.592q0.977,0.24,1.786.506a3.783,3.783,0,0,1,1.319.712,1.4,1.4,0,0,1,.51,1.1,1.708,1.708,0,0,1-.888,1.493,3.77,3.77,0,0,1-2.067.566,8.443,8.443,0,0,1-5.014-1.647l-1.76,2.282a10.568,10.568,0,0,0,6.844,2.282,7.266,7.266,0,0,0,4.433-1.373,4.27,4.27,0,0,0,1.865-3.6A4.327,4.327,0,0,0,161.4,183.962Z" transform="translate(0 -140.938)"/>
  <path id="letter-5" data-name="letter" class="cls-2" d="M144.39,190.731V174.208h-3.308v1.527a7.942,7.942,0,0,0-5.295-1.87,8.157,8.157,0,0,0-4.152,1.046,8.675,8.675,0,0,0-3.167,3.14,8.8,8.8,0,0,0-.017,8.828,8.587,8.587,0,0,0,3.149,3.114,8.39,8.39,0,0,0,4.257,1.081,7.637,7.637,0,0,0,5.225-1.853v1.51h3.308Zm-5.524-3.432a5.623,5.623,0,0,1-2.551.618,5.449,5.449,0,0,1-4.011-1.6,5.225,5.225,0,0,1-1.6-3.843,5.408,5.408,0,0,1,1.521-3.843,5.145,5.145,0,0,1,3.915-1.613,5.922,5.922,0,0,1,2.736.643,6.144,6.144,0,0,1,2.084,1.707v6.194A6.031,6.031,0,0,1,138.866,187.3Z" transform="translate(0 -140.938)"/>
  <path id="letter-6" data-name="letter" class="cls-2" d="M122.364,165.423a5.667,5.667,0,0,0-3.642,1.235q-1.953,1.545-1.953,4.925v2.625h-3.958v3h3.958v13.52H120.2v-13.52h5.049v-3H120.2V171.48a3.333,3.333,0,0,1,.51-2.076,2.258,2.258,0,0,1,1.865-.807,3.7,3.7,0,0,1,1.917.567l1.478-2.506a5.95,5.95,0,0,0-3.606-1.235h0Z" transform="translate(0 -140.938)"/>
  <path id="letter-7" data-name="letter" class="cls-2" d="M100.514,190.731V174.208H97.206v1.527a7.944,7.944,0,0,0-5.3-1.87,8.156,8.156,0,0,0-4.152,1.046,8.672,8.672,0,0,0-3.167,3.14,8.8,8.8,0,0,0-.018,8.828,8.6,8.6,0,0,0,3.149,3.114,8.391,8.391,0,0,0,4.258,1.081,7.638,7.638,0,0,0,5.225-1.853v1.51h3.308ZM94.99,187.3a5.621,5.621,0,0,1-2.551.618,5.449,5.449,0,0,1-4.011-1.6,5.227,5.227,0,0,1-1.6-3.843,5.406,5.406,0,0,1,1.522-3.843,5.142,5.142,0,0,1,3.914-1.613,5.919,5.919,0,0,1,2.736.643,6.147,6.147,0,0,1,2.085,1.707v6.194A6.032,6.032,0,0,1,94.99,187.3Z" transform="translate(0 -140.938)"/>
</svg>
