<svg xmlns="http://www.w3.org/2000/svg" width="113" height="38" viewBox="0 0 113 38">
  <defs>
    <style>
      .cls-1 {
        fill: #fff;
        fill-rule: evenodd;
      }
    </style>
  </defs>
  <path id="xfinity-logo.svg" class="cls-1" d="M47.224,448.528l7.09-9.5H51.354a3.282,3.282,0,0,0-2.883,1.4l-3.74,5.026-3.623-5.026a3.282,3.282,0,0,0-2.883-1.4H35.264l7.013,9.5L34.6,458.891h2.805a3.282,3.282,0,0,0,2.883-1.4l4.441-5.883,10.4,14.376a3.237,3.237,0,0,0,2.883,1.4h3.039Zm56.763,10.363H108V439.023h-4.012v19.868Zm-31.829,0H76.17V439.023H72.158v19.868Zm60.853,7.013,14.531-26.881H145.36a2.962,2.962,0,0,0-2.882,1.4l-5.727,10.636L131.8,440.425c-0.507-1.052-1.558-1.4-2.883-1.4h-2.1l7.636,16.206-6.662,12.155h2.182A3.2,3.2,0,0,0,133.011,465.9ZM80.962,439.023v19.868h4.013V445.256a6.319,6.319,0,0,1,5.259-2.844c2.961,0,4.987,1.87,4.987,5.61v8.96a1.81,1.81,0,0,0,1.87,1.909h2.143v-11.57c0-5.143-3.273-8.727-8.026-8.727a8.95,8.95,0,0,0-6.233,2.377v-1.948H80.962ZM115.44,451.84c0,4.324,2.65,7.4,7.4,7.4a10.184,10.184,0,0,0,2.921-.39l-0.818-3.506a8.231,8.231,0,0,1-1.831.195,3.4,3.4,0,0,1-3.662-3.779v-9.155h5.61l-1.636-3.584h-3.974v-7.987l-4.013,1.753v6.234h-4.246v3.584h4.246v9.233Zm-55.632-9.233v16.284h4.013V442.607h5.142v-3.584H63.821v-1.481c0-3.389,2.026-4.519,4.013-4.519a4.788,4.788,0,0,1,1.364.195l0.818-3.545a7.008,7.008,0,0,0-2.493-.39c-4.987,0-7.714,3.7-7.714,8.181v1.559H57.7l-2.532,3.584h4.636ZM44.715-802.7m0,2378.4M136.747-802.7m0,2378.4M-1098.41,439.421m2378.39,0" transform="translate(-34.594 -429.281)"/>
</svg>
