<svg xmlns="http://www.w3.org/2000/svg" width="320" height="130"><path data-name="GEAR AND PRIZES" d="M26.508 108.159a30.5 30.5 0 008.046-1.267l2.567-11.4-6.734.006-1.487 6.582h-.46c-2.587 0-3.382-1.477-2.481-5.476.893-3.968 2.587-5.449 5.937-5.452a10.9 10.9 0 015.263 1.223l.992-6.172a17.1 17.1 0 00-6.438-1.159c-7.431.006-11.94 3.977-13.649 11.567s1.013 11.555 8.444 11.548zm10.567-.545l16.818-.015 2.272-5.669-10.117.009.589-2.614 8.293-.007 1.276-5.668-8.293.007.546-2.425 9.653-.008.912-5.668-16.984.015zm34.3-.03l8.028-.007L76.1 85.54l-7.729.007L55.184 107.6l7.928-.007 1.828-3.622 6.226-.006zm-3.888-8.655l3.053-6.048.343 6.045zm33.653 8.628l-2.241-8.31a8.722 8.722 0 004.615-6.206c1.063-4.724-1.125-7.524-7.03-7.519l-10.914.01-4.97 22.043 7.563-.006 1.6-7.117h1.858l1.35 7.114zm-9.282-16.363h2.654c1.261 0 1.7.691 1.425 1.919a2.19 2.19 0 01-2.29 1.923h-2.654zm31.874 16.343l8.027-.007-3.3-22.036-7.729.007-13.19 22.05 7.928-.007 1.828-3.622 6.226-.006zm-3.888-8.655l3.053-6.047.343 6.044zm31.718-13.409l-2.5 11.085-4.5-11.079-6.635.006-4.964 22.044 6.8-.006 2.5-11.085 4.5 11.078 6.634-.006 4.964-22.043zm4.846 22.035l9.553-.009c7.066-.006 11.244-3.1 13.031-11.031s-1-11.018-8.067-11.012l-9.553.008zm9.029-5.927l2.3-10.2h1.857c1.758 0 2.427 1 1.5 5.1-.915 4.062-2.044 5.1-3.8 5.1zm20.1 5.9l7.563-.007 1.49-6.613h3.25c5.971 0 9.469-2.873 10.562-7.723s-1.116-7.713-7.087-7.707l-10.814.009zm10.329-12.288l.922-4.094h2.62c1.294 0 1.714.785 1.43 2.045a2.312 2.312 0 01-2.351 2.048zm31.445 12.25l-2.241-8.309a8.719 8.719 0 004.615-6.207c1.064-4.724-1.125-7.524-7.029-7.518l-10.914.009-4.964 22.044 7.563-.007 1.6-7.117h1.858l1.349 7.115zm-9.282-16.363h2.654c1.26 0 1.7.691 1.425 1.919a2.19 2.19 0 01-2.291 1.922h-2.653zm10.809 16.362l7.763-.007 4.964-22.043-7.763.007zm20.6-6.063l10.891-10.809 1.17-5.2-17.216.015-1.362 6.046 8-.007-10.892 10.809-1.17 5.2 17.316-.015 2.357-6.047zm9.632 6.036l16.818-.015 2.272-5.669-10.117.009.588-2.614 8.293-.007 1.277-5.669-8.293.008.546-2.425 9.653-.008.911-5.668-16.984.015zm28.315.51c6.7-.006 10.2-2.591 11.266-7.314.9-4-.4-5.888-4.321-6.734l-2.877-.627c-1.422-.314-1.848-.628-1.671-1.416.163-.724.7-1.2 2.359-1.2a21.225 21.225 0 017.133 1.316l1-6.046a23.042 23.042 0 00-7.514-1.1c-6.435.006-9.962 2.559-11 7.156-.886 3.937.332 5.888 4.406 6.8l2.936.659c1.389.313 1.709.659 1.56 1.321-.177.787-.822 1.291-2.513 1.293a31.473 31.473 0 01-8.42-1.347l-.406 6.077a28.213 28.213 0 008.056 1.163z" fill-rule="evenodd" fill="#fff"/></svg>