<svg xmlns="http://www.w3.org/2000/svg" width="320" height="130"><path data-name="EVERY PACK IS" d="M22.337 49.893l20.184-.019 2.726-6.8-12.142.011.706-3.137 9.953-.009 1.532-6.8-9.952.009.656-2.916 11.585-.01 1.094-6.8-20.383.018zM67.755 23.4l-7.249 15.045-.514-15.035-9.833.009 3.159 26.446 9.116-.008 15.034-26.463zm5.27 26.444l20.184-.018 2.726-6.8-12.142.01.707-3.136 9.953-.009 1.532-6.8-9.952.009.655-2.91 11.585-.01 1.094-6.8-20.383.018zm48.57-.043l-2.69-9.973a10.464 10.464 0 005.538-7.448c1.277-5.669-1.35-9.03-8.436-9.023l-13.1.011-5.958 26.455 9.077-.008 1.923-8.541h2.23l1.619 8.538zm-11.141-19.638h3.185c1.513 0 2.042.83 1.71 2.3a2.629 2.629 0 01-2.748 2.308h-3.185zm42.143-6.839l-9.872.009-5.3 9.224-1.148-9.218-10.072.009 4.679 17.225-2.077 9.222 9.316-.009 2.068-9.183zm3.559 26.446l9.077-.008 1.787-7.936h3.9c7.166-.006 11.364-3.448 12.675-9.268s-1.339-9.256-8.5-9.25l-12.978.012zm12.4-14.747l1.106-4.913h3.145c1.553 0 2.057.943 1.716 2.455a2.775 2.775 0 01-2.822 2.458zm28.462 14.711l9.634-.009-3.955-26.446-9.276.009-15.83 26.463 9.514-.009L189.3 45.4l7.472-.006zm-4.665-10.387l3.663-7.258.412 7.254zm26.222 11.01a21.65 21.65 0 007.08-1.216l2.961-7.673a17.279 17.279 0 01-6.468 1.329c-3.742 0-4.872-1.7-3.834-6.307 1.047-4.648 2.951-6.388 6.694-6.392a9.831 9.831 0 015.258 1.394l1.216-7.52a16.284 16.284 0 00-6.66-1.355c-8.639.008-13.931 4.774-15.982 13.881s1.092 13.869 9.731 13.862zm25.763-.666l10.271-.009-4.321-13.863 9.522-12.591-9.873.009-6.472 9.83h-1.394l2.213-9.826-9.236.009-5.957 26.454 9.236-.008 2.264-10.053h1.433zm19.628-.017l9.315-.008 5.958-26.455-9.316.008zm23.045.622c8.042-.008 12.243-3.11 13.519-8.778 1.081-4.8-.478-7.066-5.185-8.082l-3.452-.752c-1.707-.377-2.219-.754-2.006-1.7.2-.869.841-1.436 2.831-1.438a25.5 25.5 0 018.56 1.579l1.2-7.256a27.661 27.661 0 00-9.018-1.314c-7.723.007-11.956 3.071-13.2 8.589-1.064 4.724.4 7.065 5.287 8.157l3.524.79c1.667.376 2.051.792 1.872 1.585-.213.945-.986 1.55-3.016 1.552a37.792 37.792 0 01-10.1-1.616l-.488 7.293a33.9 33.9 0 009.668 1.395z" fill-rule="evenodd" fill="#fff"/></svg>