<?xml version="1.0" encoding="UTF-8"?>
<svg id="Layer_1" data-name="Layer 1" xmlns="http://www.w3.org/2000/svg" width="160" height="43" viewBox="0 0 160 43">
  <g id="legal">
    <path d="m56.11,14.46l-.89-.65.98-1.35-1.61-.53.34-1.04,1.61.53v-1.69h1.09v1.68l1.6-.51.34,1.04-1.59.5,1,1.38-.89.65-.99-1.36-.99,1.36Z" fill="#fff"/>
    <path d="m67.58,18.71l-1.67-4.48-1.68,4.48h-1.56l-2.03-8.75h1.61l1.44,6.5,1.74-4.68h1.01l1.73,4.68,1.45-6.5h1.55l-2.03,8.75h-1.56Z" fill="#fff"/>
    <path d="m78.25,17.43c-.24.43-.6.77-1.06,1.02-.47.25-1.02.38-1.66.38-.42,0-.83-.07-1.21-.21-.38-.14-.72-.35-1-.63s-.51-.62-.68-1.03-.26-.87-.26-1.39.08-.95.24-1.34c.16-.4.38-.73.66-1.01.28-.28.6-.49.97-.64.37-.15.76-.22,1.17-.22.83,0,1.51.27,2.04.8.53.53.81,1.25.84,2.15,0,.16.01.29.02.38s0,.17,0,.23h-4.43c.02.53.2.94.52,1.24.33.3.71.45,1.16.45.33,0,.64-.08.92-.24.28-.16.51-.38.69-.66l1.05.73Zm-2.88-3.86c-.36,0-.68.11-.97.33-.29.22-.44.55-.47.98h2.84c-.03-.45-.19-.78-.46-.99-.27-.21-.59-.32-.94-.32Z" fill="#fff"/>
    <path d="m83.79,18.22c-.18.18-.41.33-.69.43-.27.1-.57.16-.88.16-.52,0-.96-.15-1.31-.45-.35-.3-.53-.78-.53-1.45v-3.11s-.91,0-.91,0v-1.27h.92v-1.73h1.49v1.73h1.69v1.27h-1.69v2.98c0,.29.06.49.18.59.12.1.27.16.44.16.12,0,.23-.03.34-.08s.21-.12.31-.2l.63.98Z" fill="#fff"/>
    <path d="m90.68,11.68v.84h3.86v6.19h-1.53v-4.91h-2.34v4.91h-1.51v-4.91h-.94v-1.27h.94v-.76c0-.38.05-.71.16-.97.1-.26.24-.47.42-.63.17-.16.37-.28.61-.36.24-.08.5-.12.76-.12.23,0,.45.02.64.06.19.04.35.08.49.13l-.36,1.24c-.07-.03-.15-.06-.25-.09-.1-.03-.2-.04-.31-.04-.18,0-.33.05-.46.16s-.18.29-.18.55Zm3.1-.14c-.26,0-.47-.09-.65-.26-.18-.17-.26-.39-.26-.65s.09-.47.26-.64c.17-.17.39-.26.65-.26s.48.09.66.26c.18.17.27.39.27.64s-.09.48-.27.65c-.18.17-.4.26-.66.26Z" fill="#fff"/>
    <path d="m100.48,18.22c-.18.18-.41.33-.69.43-.27.1-.57.16-.88.16-.52,0-.96-.15-1.31-.45-.35-.3-.53-.78-.53-1.45v-3.11s-.91,0-.91,0v-1.27h.92v-1.73h1.49v1.73h1.69v1.27h-1.69v2.98c0,.29.06.49.18.59.12.1.27.16.44.16.12,0,.23-.03.34-.08s.21-.12.31-.2l.63.98Z" fill="#fff"/>
    <path d="m103.8,17.92c0,.27-.04.53-.12.79-.08.26-.18.52-.31.76-.13.25-.27.48-.43.71s-.31.43-.46.63l-.8-.61c.16-.22.32-.44.48-.66.16-.23.3-.46.41-.71-.22-.06-.4-.18-.54-.36s-.21-.39-.21-.62c0-.27.1-.5.29-.69.19-.2.42-.29.7-.29s.51.1.7.29c.19.2.29.45.29.77Z" fill="#fff"/>
    <path d="m112.86,18.16c-.28.23-.55.39-.82.5-.27.11-.56.16-.88.16-.27,0-.54-.04-.79-.13-.25-.09-.48-.21-.68-.38-.2-.17-.35-.37-.47-.61-.12-.24-.17-.51-.17-.81,0-.52.18-.94.54-1.24s.9-.55,1.63-.74l1.71-.44c-.03-.28-.15-.5-.36-.65-.21-.15-.48-.23-.81-.23s-.6.07-.82.22c-.22.15-.38.35-.48.61l-1.33-.45c.19-.52.54-.93,1.03-1.21s1.06-.42,1.68-.42c.77,0,1.39.19,1.86.57.48.38.71.94.71,1.69v4.1h-1.48v-.61l-.07.06Zm-2.29-1.35c0,.26.1.45.29.59s.4.2.62.2c.18,0,.36-.03.53-.1.17-.07.36-.18.59-.34l.31-.2v-1.38s-1.11.3-1.11.3c-.42.11-.74.23-.93.36-.2.13-.29.32-.29.56Z" fill="#fff"/>
    <path d="m119.46,13.74c-.29,0-.55.09-.77.27s-.39.43-.49.74v3.95h-1.53v-6.19h1.53v.71c.18-.26.42-.46.7-.62s.63-.23,1.04-.23.75.08,1.06.24c.32.16.57.41.75.73.21-.29.48-.53.81-.71s.72-.27,1.17-.27c.67,0,1.22.21,1.63.62.41.41.62,1.02.62,1.83v3.88h-1.53v-3.61c0-.44-.1-.78-.29-1.01-.19-.23-.46-.34-.81-.34-.28,0-.54.09-.76.27-.23.18-.39.43-.5.74v3.95h-1.53v-3.61c0-.44-.1-.78-.29-1.01-.19-.23-.46-.34-.81-.34Z" fill="#fff"/>
    <path d="m130.88,18.84c-.42,0-.81-.08-1.19-.23-.38-.15-.71-.36-.99-.64s-.51-.62-.67-1.02c-.17-.4-.25-.86-.25-1.37s.08-.96.26-1.36.4-.74.69-1.01c.29-.27.62-.49.99-.63.38-.15.77-.22,1.17-.22s.81.07,1.19.22c.38.15.7.35.99.62.28.27.51.61.67,1.01s.25.86.25,1.37-.08.95-.26,1.36-.4.75-.68,1.03-.61.49-.99.64-.77.23-1.18.23Zm0-1.36c.43,0,.79-.16,1.09-.49.3-.33.46-.8.46-1.41s-.15-1.06-.46-1.39c-.3-.33-.67-.49-1.09-.49s-.79.16-1.1.48c-.31.32-.46.79-.46,1.39s.15,1.07.46,1.4c.31.33.67.5,1.1.5Z" fill="#fff"/>
    <path d="m138.74,13.74c-.28,0-.55.09-.79.26-.24.17-.43.42-.55.73v3.98h-1.53v-6.19h1.53v.79c.18-.27.43-.5.73-.68.3-.17.67-.26,1.09-.26.65,0,1.18.2,1.6.61.42.4.62,1.03.62,1.87v3.86h-1.53v-3.6c0-.48-.11-.82-.32-1.04-.21-.22-.5-.33-.87-.33Z" fill="#fff"/>
    <path d="m148.79,19.34c0,.58-.25,1.03-.74,1.38s-1.15.51-1.97.51h-.35c-.78,0-1.41-.14-1.91-.43s-.75-.72-.75-1.29c0-.34.11-.63.33-.87.22-.24.5-.42.86-.54-.13-.08-.24-.19-.32-.31s-.12-.27-.12-.42c0-.19.06-.36.17-.52.11-.15.26-.29.46-.39-.32-.18-.57-.43-.77-.75-.2-.32-.29-.68-.29-1.1,0-.34.07-.65.21-.93.14-.27.32-.51.56-.69.23-.19.5-.33.81-.43.3-.1.62-.15.96-.15.15,0,.28,0,.4.02.12.01.24.03.38.04.13.02.28.03.45.04.17.01.37.02.61.02h1.27v1.14h-.92c.08.14.15.3.2.46.05.17.08.33.08.49,0,.34-.06.65-.19.92-.12.28-.3.51-.52.69-.22.19-.48.33-.79.43-.3.1-.63.15-.97.15-.27,0-.45.05-.54.14s-.14.18-.14.26c0,.12.06.2.17.26.11.06.29.09.53.1l.83.04c.68.02,1.18.18,1.53.49s.51.73.51,1.24Zm-3.04.75h.35c.42,0,.73-.06.95-.18.22-.12.32-.29.32-.51,0-.23-.1-.41-.31-.52-.2-.11-.49-.17-.87-.17h-.46c-.41,0-.72.07-.94.18-.22.11-.33.29-.33.53s.12.4.34.51c.23.1.54.16.94.16Zm-.99-5.5c0,.31.11.56.32.76.21.2.48.29.81.29s.59-.1.79-.29.31-.45.31-.76-.1-.55-.31-.74c-.21-.2-.47-.29-.79-.29-.33,0-.6.1-.81.29-.21.2-.31.44-.31.74Z" fill="#fff"/>
    <path d="m17.16,28.58c0,.51-.07.96-.22,1.37s-.35.74-.61,1.02c-.25.28-.55.49-.89.63-.34.15-.69.22-1.06.22-.4,0-.75-.07-1.06-.22-.3-.15-.55-.35-.74-.61v.73h-1.43v-8.98h1.53v3.28c.2-.19.44-.35.73-.46.29-.12.61-.17.96-.17.38,0,.74.07,1.08.22s.63.35.88.62c.25.27.45.61.6,1.01s.22.85.22,1.36Zm-4.48.36c0,.48.15.84.44,1.11.28.26.62.39,1.01.39s.76-.16,1.04-.47c.29-.31.43-.78.43-1.39s-.14-1.06-.43-1.37c-.29-.31-.64-.47-1.04-.47-.38,0-.72.13-1.01.38-.29.25-.44.62-.44,1.11v.71Z" fill="#fff"/>
    <path d="m21.65,26.83c-.23,0-.44.08-.63.23s-.32.33-.41.53v4.13h-1.53v-6.19h1.53v.71c.13-.23.31-.42.54-.58.22-.16.49-.24.79-.24.23,0,.43.03.62.09.19.06.33.13.44.21l-.54,1.36c-.12-.08-.26-.15-.39-.19-.14-.04-.28-.06-.42-.06Z" fill="#fff"/>
    <path d="m27.89,31.16c-.28.23-.55.39-.82.5-.27.11-.56.16-.88.16-.27,0-.54-.04-.79-.13-.25-.09-.48-.21-.68-.38-.2-.17-.35-.37-.47-.61-.12-.24-.17-.51-.17-.81,0-.52.18-.94.54-1.24s.9-.55,1.63-.74l1.71-.44c-.03-.28-.15-.5-.36-.65-.21-.15-.48-.23-.81-.23s-.6.07-.82.22c-.22.15-.38.35-.48.61l-1.33-.45c.19-.52.54-.93,1.03-1.21s1.06-.42,1.68-.42c.77,0,1.39.19,1.86.57.48.38.71.94.71,1.69v4.1h-1.48v-.61l-.07.06Zm-2.29-1.35c0,.26.1.45.29.59s.4.2.62.2c.18,0,.36-.03.53-.1.17-.07.36-.18.59-.34l.31-.2v-1.38s-1.11.3-1.11.3c-.42.11-.74.23-.93.36-.2.13-.29.32-.29.56Z" fill="#fff"/>
    <path d="m34.57,26.74c-.28,0-.55.09-.79.26-.24.17-.43.42-.55.73v3.98h-1.53v-6.19h1.53v.79c.18-.27.43-.5.73-.68.3-.17.67-.26,1.09-.26.65,0,1.18.2,1.6.61.42.4.62,1.03.62,1.87v3.86h-1.53v-3.6c0-.48-.11-.82-.32-1.04-.21-.22-.5-.33-.87-.33Z" fill="#fff"/>
    <path d="m43.68,31.71v-.66c-.2.23-.45.41-.76.56-.3.15-.64.22-1.02.22s-.73-.07-1.08-.21-.64-.35-.89-.62-.45-.61-.6-1.02c-.15-.4-.23-.86-.23-1.38s.08-.96.23-1.36c.15-.4.35-.74.6-1.01s.54-.48.88-.62c.34-.15.69-.22,1.07-.22s.68.05.96.16c.28.11.53.26.74.46v-3.26h1.53v8.98h-1.44Zm-3.01-3.13c0,.62.14,1.08.43,1.39.29.31.64.47,1.04.47.38,0,.72-.13,1.01-.38.29-.25.44-.63.44-1.13v-.7c0-.48-.15-.84-.43-1.1-.28-.26-.62-.39-1.02-.39s-.76.15-1.04.46c-.29.31-.43.77-.43,1.38Z" fill="#fff"/>
    <path d="m52.88,30.43c-.24.43-.6.77-1.06,1.02-.47.25-1.02.38-1.66.38-.42,0-.83-.07-1.21-.21-.38-.14-.72-.35-1-.63s-.51-.62-.68-1.03-.26-.87-.26-1.39.08-.95.24-1.34c.16-.4.38-.73.66-1.01.28-.28.6-.49.97-.64.37-.15.76-.22,1.17-.22.83,0,1.51.27,2.04.8.53.53.81,1.25.84,2.15,0,.16.01.29.02.38s0,.17,0,.23h-4.43c.02.53.2.94.52,1.24.33.3.71.45,1.16.45.33,0,.64-.08.92-.24.28-.16.51-.38.69-.66l1.05.73Zm-2.88-3.86c-.36,0-.68.11-.97.33-.29.22-.44.55-.47.98h2.84c-.03-.45-.19-.78-.46-.99-.27-.21-.59-.32-.94-.32Z" fill="#fff"/>
    <path d="m58.97,31.71v-.66c-.2.23-.45.41-.76.56-.3.15-.64.22-1.02.22s-.73-.07-1.08-.21-.64-.35-.89-.62-.45-.61-.6-1.02c-.15-.4-.23-.86-.23-1.38s.08-.96.23-1.36c.15-.4.35-.74.6-1.01s.54-.48.88-.62c.34-.15.69-.22,1.07-.22s.68.05.96.16c.28.11.53.26.74.46v-3.26h1.53v8.98h-1.44Zm-3.01-3.13c0,.62.14,1.08.43,1.39.29.31.64.47,1.04.47.38,0,.72-.13,1.01-.38.29-.25.44-.63.44-1.13v-.7c0-.48-.15-.84-.43-1.1-.28-.26-.62-.39-1.02-.39s-.76.15-1.04.46c-.29.31-.43.77-.43,1.38Z" fill="#fff"/>
    <path d="m68.92,31.84c-.42,0-.81-.08-1.19-.23-.38-.15-.71-.36-.99-.64s-.51-.62-.67-1.02c-.17-.4-.25-.86-.25-1.37s.08-.96.26-1.36.4-.74.69-1.01c.29-.27.62-.49.99-.63.38-.15.77-.22,1.17-.22s.81.07,1.19.22c.38.15.7.35.99.62.28.27.51.61.67,1.01s.25.86.25,1.37-.08.95-.26,1.36-.4.75-.68,1.03-.61.49-.99.64-.77.23-1.18.23Zm0-1.36c.43,0,.79-.16,1.09-.49.3-.33.46-.8.46-1.41s-.15-1.06-.46-1.39c-.3-.33-.67-.49-1.09-.49s-.79.16-1.1.48c-.31.32-.46.79-.46,1.39s.15,1.07.46,1.4c.31.33.67.5,1.1.5Z" fill="#fff"/>
    <path d="m77.14,31.82c-.36,0-.68-.06-.97-.18-.29-.12-.53-.29-.73-.49v2.94h-1.53v-8.56h1.43v.65c.19-.23.44-.42.74-.58.3-.15.65-.22,1.04-.22s.74.07,1.08.22.63.35.88.62c.25.27.45.61.6,1.01s.22.86.22,1.37-.07.96-.22,1.36c-.15.4-.35.74-.61,1.01-.25.28-.55.49-.89.63-.34.15-.69.22-1.06.22Zm-1.7-2.88c0,.48.15.84.44,1.11.28.26.62.39,1.01.39s.76-.16,1.04-.47c.29-.31.43-.77.43-1.38s-.14-1.07-.43-1.38c-.29-.31-.64-.47-1.04-.47-.38,0-.72.13-1.01.38-.29.25-.44.62-.44,1.11v.71Z" fill="#fff"/>
    <path d="m87.25,30.43c-.24.43-.6.77-1.06,1.02-.47.25-1.02.38-1.66.38-.42,0-.83-.07-1.21-.21-.38-.14-.72-.35-1-.63s-.51-.62-.68-1.03-.26-.87-.26-1.39.08-.95.24-1.34c.16-.4.38-.73.66-1.01.28-.28.6-.49.97-.64.37-.15.76-.22,1.17-.22.83,0,1.51.27,2.04.8.53.53.81,1.25.84,2.15,0,.16.01.29.02.38s0,.17,0,.23h-4.43c.02.53.2.94.52,1.24.33.3.71.45,1.16.45.33,0,.64-.08.92-.24.28-.16.51-.38.69-.66l1.05.73Zm-2.88-3.86c-.36,0-.68.11-.97.33-.29.22-.44.55-.47.98h2.84c-.03-.45-.19-.78-.46-.99-.27-.21-.59-.32-.94-.32Z" fill="#fff"/>
    <path d="m92.06,26.74c-.28,0-.55.09-.79.26-.24.17-.43.42-.55.73v3.98h-1.53v-6.19h1.53v.79c.18-.27.43-.5.73-.68.3-.17.67-.26,1.09-.26.65,0,1.18.2,1.6.61.42.4.62,1.03.62,1.87v3.86h-1.53v-3.6c0-.48-.11-.82-.32-1.04-.21-.22-.5-.33-.87-.33Z" fill="#fff"/>
    <path d="m104.69,31.71v-.66c-.2.23-.45.41-.76.56-.3.15-.64.22-1.02.22s-.73-.07-1.08-.21-.64-.35-.89-.62-.45-.61-.6-1.02c-.15-.4-.23-.86-.23-1.38s.08-.96.23-1.36c.15-.4.35-.74.6-1.01s.54-.48.88-.62c.34-.15.69-.22,1.07-.22s.68.05.96.16c.28.11.53.26.74.46v-3.26h1.53v8.98h-1.44Zm-3.01-3.13c0,.62.14,1.08.43,1.39.29.31.64.47,1.04.47.38,0,.72-.13,1.01-.38.29-.25.44-.63.44-1.13v-.7c0-.48-.15-.84-.43-1.1-.28-.26-.62-.39-1.02-.39s-.76.15-1.04.46c-.29.31-.43.77-.43,1.38Z" fill="#fff"/>
    <path d="m109.24,24.54c-.26,0-.47-.09-.65-.26-.18-.17-.26-.39-.26-.65s.09-.47.26-.64c.17-.17.39-.26.65-.26s.48.09.66.26c.18.17.27.39.27.64s-.09.48-.27.65c-.18.17-.4.26-.66.26Zm-.76,7.16v-6.19h1.53v6.19h-1.53Z" fill="#fff"/>
    <path d="m115.76,31.16c-.28.23-.55.39-.82.5-.27.11-.56.16-.88.16-.27,0-.54-.04-.79-.13-.25-.09-.48-.21-.68-.38-.2-.17-.35-.37-.47-.61-.12-.24-.17-.51-.17-.81,0-.52.18-.94.54-1.24s.9-.55,1.63-.74l1.71-.44c-.03-.28-.15-.5-.36-.65-.21-.15-.48-.23-.81-.23s-.6.07-.82.22c-.22.15-.38.35-.48.61l-1.33-.45c.19-.52.54-.93,1.03-1.21s1.06-.42,1.68-.42c.77,0,1.39.19,1.86.57.48.38.71.94.71,1.69v4.1h-1.48v-.61l-.07.06Zm-2.29-1.35c0,.26.1.45.29.59s.4.2.62.2c.18,0,.36-.03.53-.1.17-.07.36-.18.59-.34l.31-.2v-1.38s-1.11.3-1.11.3c-.42.11-.74.23-.93.36-.2.13-.29.32-.29.56Z" fill="#fff"/>
    <path d="m122.79,31.82c-.36,0-.68-.06-.97-.18-.29-.12-.53-.29-.73-.49v2.94h-1.53v-8.56h1.43v.65c.19-.23.44-.42.74-.58.3-.15.65-.22,1.04-.22s.74.07,1.08.22.63.35.88.62c.25.27.45.61.6,1.01s.22.86.22,1.37-.07.96-.22,1.36c-.15.4-.35.74-.61,1.01-.25.28-.55.49-.89.63-.34.15-.69.22-1.06.22Zm-1.7-2.88c0,.48.15.84.44,1.11.28.26.62.39,1.01.39s.76-.16,1.04-.47c.29-.31.43-.77.43-1.38s-.14-1.07-.43-1.38c-.29-.31-.64-.47-1.04-.47-.38,0-.72.13-1.01.38-.29.25-.44.62-.44,1.11v.71Z" fill="#fff"/>
    <path d="m132.91,30.43c-.24.43-.6.77-1.06,1.02-.47.25-1.02.38-1.66.38-.42,0-.83-.07-1.21-.21-.38-.14-.72-.35-1-.63s-.51-.62-.68-1.03-.26-.87-.26-1.39.08-.95.24-1.34c.16-.4.38-.73.66-1.01.28-.28.6-.49.97-.64.37-.15.76-.22,1.17-.22.83,0,1.51.27,2.04.8.53.53.81,1.25.84,2.15,0,.16.01.29.02.38s0,.17,0,.23h-4.43c.02.53.2.94.52,1.24.33.3.71.45,1.16.45.33,0,.64-.08.92-.24.28-.16.51-.38.69-.66l1.05.73Zm-2.88-3.86c-.36,0-.68.11-.97.33-.29.22-.44.55-.47.98h2.84c-.03-.45-.19-.78-.46-.99-.27-.21-.59-.32-.94-.32Z" fill="#fff"/>
    <path d="m137.42,26.83c-.23,0-.44.08-.63.23s-.32.33-.41.53v4.13h-1.53v-6.19h1.53v.71c.13-.23.31-.42.54-.58.22-.16.49-.24.79-.24.23,0,.43.03.62.09.19.06.33.13.44.21l-.54,1.36c-.12-.08-.26-.15-.39-.19-.14-.04-.28-.06-.42-.06Z" fill="#fff"/>
    <path d="m142.35,31.83c-.67,0-1.25-.15-1.73-.44s-.8-.74-.97-1.34l1.3-.4c.11.33.28.59.53.76.24.18.53.26.88.26.29,0,.54-.06.76-.18.21-.12.32-.3.32-.53,0-.26-.13-.44-.39-.54-.26-.1-.58-.19-.96-.26-.62-.11-1.14-.3-1.55-.56-.41-.27-.61-.7-.61-1.3s.24-1.06.71-1.42c.47-.35,1.07-.53,1.78-.53s1.25.15,1.66.46c.4.31.67.69.81,1.15l-1.29.36c-.08-.28-.23-.49-.43-.62s-.46-.2-.76-.2-.55.07-.74.21c-.18.14-.27.31-.27.53,0,.24.12.41.37.49.25.09.56.16.94.22.62.1,1.14.29,1.57.57.43.28.64.74.64,1.37,0,.6-.24,1.08-.73,1.43s-1.09.52-1.83.52Z" fill="#fff"/>
    <path d="m147.56,31.86c-.28,0-.51-.1-.7-.3-.19-.2-.29-.44-.29-.71s.1-.5.29-.69c.19-.2.42-.29.7-.29s.51.1.7.29c.19.2.29.43.29.69s-.1.51-.29.71c-.19.2-.42.3-.7.3Z" fill="#fff"/>
  </g>
</svg>