<svg id="frame2-line1b.svg" xmlns="http://www.w3.org/2000/svg" width="320" height="90" viewBox="0 0 320 90">
  <defs>
    <style>
      .cls-1 {
        fill: red;
        opacity: 0.25;
      }

      .cls-2 {
        fill: #fff;
        fill-rule: evenodd;
      }
    </style>
  </defs>
  
  <path id="letter" class="cls-2" d="M200.407,23.938a5.232,5.232,0,0,0-2.253.462,4.081,4.081,0,0,0-1.5,1.12V24.064h-2.442V36.25h2.52V28.265a4.6,4.6,0,0,1,1.591-1.5,4.1,4.1,0,0,1,2.059-.55,5.417,5.417,0,0,1,.883.089V23.988a6.929,6.929,0,0,0-.858-0.051h0Zm0.949,15.945h1.727l3.2-6.745h-2.936Z"/>
  <path id="letter-2" data-name="letter" class="cls-2" d="M190.938,30.164a6.417,6.417,0,0,0-1.682-4.537A5.548,5.548,0,0,0,185,23.811a5.9,5.9,0,0,0-4.435,1.8,6.294,6.294,0,0,0-1.734,4.556,6.244,6.244,0,0,0,1.747,4.549,5.993,5.993,0,0,0,4.487,1.791,6.8,6.8,0,0,0,5.339-2.278l-1.494-1.506a5.383,5.383,0,0,1-3.741,1.582,3.745,3.745,0,0,1-2.695-1.025,3.96,3.96,0,0,1-1.214-2.594h9.65a4.466,4.466,0,0,0,.026-0.519h0Zm-3.864-3.455a3.415,3.415,0,0,1,1.228,1.9H181.5A3.485,3.485,0,0,1,182.8,26.7a3.583,3.583,0,0,1,2.2-.734A3.26,3.26,0,0,1,187.074,26.709Z"/>
  <path id="letter-3" data-name="letter" class="cls-2" d="M174.637,34.251a1.709,1.709,0,0,1-1.351-.544,2.653,2.653,0,0,1-.4-1.658V26.279h3.728V24.064h-3.728v-3.91h-2.533v3.91h-2.923v2.215h2.923v5.694a4.822,4.822,0,0,0,.857,3.138,3.8,3.8,0,0,0,1.4,1.025,4.377,4.377,0,0,0,1.773.367,5,5,0,0,0,2.767-.822l-0.987-1.873a2.97,2.97,0,0,1-1.52.443h0Z"/>
  <path id="letter-4" data-name="letter" class="cls-2" d="M165.532,31.258a2.938,2.938,0,0,0-.974-1.063,7.226,7.226,0,0,0-1.319-.664,12.713,12.713,0,0,0-1.441-.462q-0.721-.183-1.319-0.373a3.052,3.052,0,0,1-.974-0.487,0.887,0.887,0,0,1-.377-0.715,1.27,1.27,0,0,1,.656-1.114,2.926,2.926,0,0,1,1.6-.418,4.948,4.948,0,0,1,2.767.886l1.221-1.7a6.7,6.7,0,0,0-4.144-1.341,6.228,6.228,0,0,0-1.669.221,5.431,5.431,0,0,0-1.474.652,3.161,3.161,0,0,0-1.078,1.158,3.348,3.348,0,0,0-.4,1.651,3.081,3.081,0,0,0,.377,1.556,2.765,2.765,0,0,0,.974,1.019,7.346,7.346,0,0,0,1.319.62,14.392,14.392,0,0,0,1.441.437q0.721,0.177,1.319.373a2.785,2.785,0,0,1,.974.525,1.035,1.035,0,0,1,.377.81,1.26,1.26,0,0,1-.656,1.1,2.783,2.783,0,0,1-1.527.418,6.237,6.237,0,0,1-3.7-1.215l-1.3,1.683a7.8,7.8,0,0,0,5.052,1.683,5.374,5.374,0,0,0,3.274-1.012,3.15,3.15,0,0,0,1.377-2.658A3.19,3.19,0,0,0,165.532,31.258Z"/>
  <path id="letter-5" data-name="letter" class="cls-2" d="M152.971,36.25V24.064h-2.442V25.19a5.869,5.869,0,0,0-3.909-1.379,6.025,6.025,0,0,0-3.066.772,6.4,6.4,0,0,0-2.338,2.316,6.484,6.484,0,0,0-.013,6.511,6.34,6.34,0,0,0,2.325,2.3,6.206,6.206,0,0,0,3.144.8,5.641,5.641,0,0,0,3.857-1.367V36.25h2.442Zm-4.078-2.531a4.154,4.154,0,0,1-1.884.456A4.026,4.026,0,0,1,144.048,33a3.855,3.855,0,0,1-1.182-2.835,3.986,3.986,0,0,1,1.123-2.835,3.8,3.8,0,0,1,2.891-1.19,4.373,4.373,0,0,1,2.019.475,4.549,4.549,0,0,1,1.54,1.259v4.568A4.469,4.469,0,0,1,148.893,33.719Z"/>
  <path id="letter-6" data-name="letter" class="cls-2" d="M136.709,17.585a4.184,4.184,0,0,0-2.689.911,4.348,4.348,0,0,0-1.441,3.632v1.936h-2.923v2.215h2.923V36.25h2.532V26.279h3.728V24.064h-3.728V22.052a2.457,2.457,0,0,1,.377-1.531,1.667,1.667,0,0,1,1.377-.595,2.745,2.745,0,0,1,1.416.418l1.091-1.848a4.4,4.4,0,0,0-2.663-.911h0Z"/>
</svg>
