<svg id="frame2-line2a.svg" xmlns="http://www.w3.org/2000/svg" width="300" height="81" viewBox="0 0 300 81">
  <defs>
    <style>
      .cls-1 {
        fill: red;
        opacity: 0.25;
      }

      .cls-1, .cls-2, .cls-3 {
        fill-rule: evenodd;
      }

      .cls-2, .cls-3 {
        fill: #fff;
      }

      .cls-2 {
        opacity: 0;
      }
    </style>
  </defs>
  
  <path id="word" class="cls-2" d="M185.139,297.105a8.138,8.138,0,0,0,8.332-8.358,8.148,8.148,0,0,0-2.376-5.981,8.606,8.606,0,0,0-11.912,0,8.7,8.7,0,0,0,0,11.953A8.059,8.059,0,0,0,185.139,297.105Zm0-13.663a4.758,4.758,0,0,1,3.639,1.534,5.672,5.672,0,0,1,0,7.533,5.1,5.1,0,0,1-7.278,0,5.675,5.675,0,0,1,0-7.533A4.758,4.758,0,0,1,185.139,283.442Zm11.687-2.736v16.065h3.246V285.727a5.768,5.768,0,0,1,4.634-2.285,4.273,4.273,0,0,1,1.874.425,4.089,4.089,0,0,1,1.456,1.143,5.9,5.9,0,0,1,.953,3.737v8.024h3.263v-7.857a9.027,9.027,0,0,0-1.59-5.706,7.575,7.575,0,0,0-2.585-2.077,7.259,7.259,0,0,0-3.27-.759,6.7,6.7,0,0,0-2.8.559,7.286,7.286,0,0,0-2.033,1.326v-1.551h-3.145Z" transform="translate(0 -247.938)"/>
  <path id="letter" class="cls-3" d="M166.533,288.747a8.581,8.581,0,0,0-2.166-5.981,7.072,7.072,0,0,0-5.48-2.394,7.506,7.506,0,0,0-5.713,2.369,9.152,9.152,0,0,0,.017,12,7.63,7.63,0,0,0,5.78,2.361,8.667,8.667,0,0,0,6.876-3l-1.924-1.985A6.856,6.856,0,0,1,159.1,294.2a4.76,4.76,0,0,1-3.472-1.351,5.275,5.275,0,0,1-1.564-3.42H166.5a6.317,6.317,0,0,0,.033-0.684h0Zm-4.977-4.555a4.52,4.52,0,0,1,1.581,2.5H154.37a4.7,4.7,0,0,1,4.517-3.487A4.141,4.141,0,0,1,161.556,284.192Z" transform="translate(0 -247.938)"/>
  <path id="letter-2" data-name="letter" class="cls-3" d="M143.305,296.771l6.994-16.065h-3.33L142.2,291.683l-4.752-10.977h-3.4l6.993,16.065h2.259Z" transform="translate(0 -247.938)"/>
  <path id="letter-3" data-name="letter" class="cls-3" d="M125.109,297.105a8.137,8.137,0,0,0,8.332-8.358,8.151,8.151,0,0,0-2.375-5.981,8.607,8.607,0,0,0-11.913,0,8.707,8.707,0,0,0,0,11.953A8.059,8.059,0,0,0,125.109,297.105Zm0-13.663a4.755,4.755,0,0,1,3.639,1.534,5.672,5.672,0,0,1,0,7.533,5.1,5.1,0,0,1-7.277,0,5.672,5.672,0,0,1,0-7.533A4.754,4.754,0,0,1,125.109,283.442Z" transform="translate(0 -247.938)"/>
  <path id="letter-4" data-name="letter" class="cls-3" d="M86.835,296.771H90.08V285.727a7.208,7.208,0,0,1,1.983-1.618,5.094,5.094,0,0,1,2.551-.667,4.135,4.135,0,0,1,1.74.375,3.9,3.9,0,0,1,1.372,1.026,4.828,4.828,0,0,1,.92,3.22v8.708h3.263v-8.208a13.652,13.652,0,0,0-.268-2.836,6.657,6.657,0,0,1,4.9-2.285,3.778,3.778,0,0,1,3.012,1.4,4.83,4.83,0,0,1,.92,3.22v8.708h3.262v-8.208a12.333,12.333,0,0,0-.359-3.261,6.285,6.285,0,0,0-1.113-2.227,7.158,7.158,0,0,0-2.518-1.986,7.322,7.322,0,0,0-3.2-.717,7.74,7.74,0,0,0-3.438.7,10.182,10.182,0,0,0-2.7,1.968,7.606,7.606,0,0,0-2.5-1.952,7.148,7.148,0,0,0-3.187-.717,6.635,6.635,0,0,0-2.811.609,5.937,5.937,0,0,0-1.924,1.276v-1.551H86.835v16.065Z" transform="translate(0 -247.938)"/>
</svg>
