<svg id="frame3-line1b.svg" xmlns="http://www.w3.org/2000/svg" width="320" height="90" viewBox="0 0 320 90">
  <defs>
    <style>
      .cls-1 {
        fill: red;
        opacity: 0.25;
      }

      .cls-2 {
        fill: #fff;
        fill-rule: evenodd;
      }
    </style>
  </defs>
  
  <path id="letter" class="cls-2" d="M296.553,30.664a6.422,6.422,0,0,0-1.682-4.537,5.551,5.551,0,0,0-4.254-1.816,5.9,5.9,0,0,0-4.436,1.8,6.294,6.294,0,0,0-1.734,4.556,6.244,6.244,0,0,0,1.747,4.549A6,6,0,0,0,290.682,37a6.8,6.8,0,0,0,5.338-2.278l-1.493-1.506a5.386,5.386,0,0,1-3.741,1.582,3.741,3.741,0,0,1-2.695-1.025,3.957,3.957,0,0,1-1.215-2.594h9.651a4.7,4.7,0,0,0,.026-0.519h0Zm-3.864-3.455a3.413,3.413,0,0,1,1.227,1.9H287.11a3.478,3.478,0,0,1,1.305-1.911,3.586,3.586,0,0,1,2.2-.734A3.262,3.262,0,0,1,292.689,27.209Z"/>
  <path id="letter-2" data-name="letter" class="cls-2" d="M277.654,36.75l5.429-12.186H280.5l-3.7,8.327-3.689-8.327h-2.637L275.9,36.75h1.754Z"/>
  <path id="letter-3" data-name="letter" class="cls-2" d="M262.664,37a6.338,6.338,0,0,0,4.625-1.81,6.087,6.087,0,0,0,1.844-4.53,6.109,6.109,0,0,0-1.844-4.537,6.8,6.8,0,0,0-9.249,0,6.109,6.109,0,0,0-1.844,4.537,6.087,6.087,0,0,0,1.844,4.53A6.336,6.336,0,0,0,262.664,37Zm0-10.364A3.738,3.738,0,0,1,265.49,27.8a4.231,4.231,0,0,1,0,5.714,4.026,4.026,0,0,1-5.651,0,4.231,4.231,0,0,1,0-5.713A3.736,3.736,0,0,1,262.664,26.639Z"/>
  <path id="letter-4" data-name="letter" class="cls-2" d="M232.127,36.75h2.52V28.373a5.583,5.583,0,0,1,1.539-1.227,4.032,4.032,0,0,1,1.981-.506,3.271,3.271,0,0,1,1.351.285,3.028,3.028,0,0,1,1.065.778,3.6,3.6,0,0,1,.714,2.442V36.75h2.533V30.524a10.072,10.072,0,0,0-.208-2.151,5.224,5.224,0,0,1,3.806-1.734,2.961,2.961,0,0,1,2.338,1.063,3.6,3.6,0,0,1,.715,2.442V36.75h2.533V30.524a9.127,9.127,0,0,0-.28-2.474,4.739,4.739,0,0,0-.863-1.689,5.548,5.548,0,0,0-1.955-1.506,5.8,5.8,0,0,0-2.488-.544,6.134,6.134,0,0,0-2.669.532,7.909,7.909,0,0,0-2.1,1.493,5.879,5.879,0,0,0-1.942-1.481,5.653,5.653,0,0,0-2.474-.544,5.254,5.254,0,0,0-2.182.462,4.628,4.628,0,0,0-1.494.968V24.564h-2.442V36.75Z"/>
</svg>
