<svg id="frame2-line1b.svg" xmlns="http://www.w3.org/2000/svg" width="300" height="60" viewBox="0 0 300 60">
  <defs>
    <style>
      .cls-1 {
        fill: red;
        opacity: 0.25;
      }

      .cls-2 {
        fill: #fff;
        fill-rule: evenodd;
      }
    </style>
  </defs>
  
  <path id="letter" class="cls-2" d="M213.7,114.439a6.274,6.274,0,0,0-1.585-4.376,5.169,5.169,0,0,0-4.008-1.752,5.494,5.494,0,0,0-4.18,1.733,6.7,6.7,0,0,0,.013,8.783,5.579,5.579,0,0,0,4.228,1.728,6.341,6.341,0,0,0,5.031-2.2l-1.408-1.452a5.017,5.017,0,0,1-3.525,1.526,3.485,3.485,0,0,1-2.54-.989,3.861,3.861,0,0,1-1.144-2.5h9.094a4.64,4.64,0,0,0,.024-0.5h0Zm-3.641-3.333a3.3,3.3,0,0,1,1.157,1.831H204.8a3.365,3.365,0,0,1,1.23-1.843,3.327,3.327,0,0,1,2.075-.708A3.029,3.029,0,0,1,210.055,111.106Z" transform="translate(0 -80)"/>
  <path id="letter-2" data-name="letter" class="cls-2" d="M196.624,120.31l5.116-11.755H199.3l-3.488,8.032-3.476-8.032h-2.485l5.116,11.755h1.653Z" transform="translate(0 -80)"/>
  <path id="letter-3" data-name="letter" class="cls-2" d="M183.232,120.555a5.954,5.954,0,0,0,6.1-6.116,5.963,5.963,0,0,0-1.738-4.376,6.295,6.295,0,0,0-8.715,0,6.37,6.37,0,0,0,0,8.746A5.9,5.9,0,0,0,183.232,120.555Zm0-10a3.477,3.477,0,0,1,2.662,1.123,4.151,4.151,0,0,1,0,5.512,3.733,3.733,0,0,1-5.324,0,4.154,4.154,0,0,1,0-5.512A3.479,3.479,0,0,1,183.232,110.557Z" transform="translate(0 -80)"/>
  <path id="letter-4" data-name="letter" class="cls-2" d="M155.16,120.31h2.374v-8.081a5.286,5.286,0,0,1,1.45-1.184,3.736,3.736,0,0,1,1.867-.488,3.023,3.023,0,0,1,1.273.275,2.849,2.849,0,0,1,1,.75,3.533,3.533,0,0,1,.674,2.356v6.372h2.386v-6a9.95,9.95,0,0,0-.2-2.076,4.876,4.876,0,0,1,3.587-1.672,2.766,2.766,0,0,1,2.2,1.025,3.538,3.538,0,0,1,.673,2.356v6.372h2.386v-6a8.98,8.98,0,0,0-.263-2.387,4.592,4.592,0,0,0-.814-1.63,5.227,5.227,0,0,0-1.842-1.452,5.35,5.35,0,0,0-2.343-.525,5.668,5.668,0,0,0-2.516.513,7.446,7.446,0,0,0-1.976,1.44,5.56,5.56,0,0,0-1.83-1.428,5.225,5.225,0,0,0-2.332-.525,4.856,4.856,0,0,0-2.056.445,4.364,4.364,0,0,0-1.407.934v-1.135h-2.3V120.31Z" transform="translate(0 -80)"/>
</svg>
