<svg xmlns="http://www.w3.org/2000/svg" width="600" height="200"><path data-name="EVERY PACK IS" d="M89.75 76.9l31.051-.028L125 66.387l-18.681.017 1.087-4.835 15.312-.013 2.356-10.486-15.311.014 1.008-4.485 17.823-.016 1.683-10.485-31.358.028zm69.873-40.83l-11.151 23.189-.792-23.178-15.127.013 4.86 40.763 14.025-.012 23.129-40.788zm8.108 40.76l31.052-.028 4.194-10.486-18.68.016 1.087-4.834 15.312-.014L203.052 51l-15.311.013 1.008-4.485 17.823-.016 1.683-10.484-31.358.028zm74.722-.067l-4.138-15.371c4.492-2.275 7.329-6.18 8.52-11.481 1.964-8.737-2.076-13.917-12.978-13.907l-20.15.018-9.165 40.778 13.964-.012 2.959-13.165h3.43l2.492 13.16zM225.314 46.5h4.9c2.327 0 3.142 1.278 2.631 3.55a4.046 4.046 0 01-4.228 3.557h-4.9zm64.836-10.541l-15.189.014-8.156 14.218-1.766-14.209-15.495.014 7.2 26.55-3.194 14.214 14.331-.013 3.182-14.155zm5.475 40.763l13.964-.013 2.749-12.232 6-.006c11.025-.01 17.483-5.315 19.5-14.286s-2.06-14.267-13.084-14.257l-19.966.018zm19.07-22.73l1.7-7.573h4.839c2.388 0 3.163 1.453 2.64 3.783s-1.954 3.787-4.342 3.789zm43.788 22.674l14.822-.014-6.085-40.762-14.271.013L328.6 76.688l14.638-.013 3.375-6.7 11.5-.011zm-7.177-16.01l5.636-11.187.633 11.182zm40.342 16.97a33.235 33.235 0 0010.892-1.873l4.556-11.827a26.522 26.522 0 01-9.951 2.047c-5.757 0-7.5-2.614-5.9-9.72 1.61-7.165 4.54-9.847 10.3-9.852a15.108 15.108 0 018.09 2.148l1.871-11.592a25.014 25.014 0 00-10.247-2.087c-13.291.012-21.432 7.357-24.588 21.4s1.686 21.364 14.977 21.352zm39.635-1.025l15.8-.015-6.648-21.367 14.649-19.407-15.189.013-9.957 15.152H427.8l3.4-15.145-14.209.013-9.165 40.776 14.209-.013 3.483-15.5h2.205zm30.2-.027l14.332-.013 9.165-40.776-14.332.013zm35.454.958c12.372-.011 18.835-4.793 20.8-13.53 1.663-7.4-.736-10.89-7.977-12.456l-5.312-1.16c-2.625-.58-3.413-1.162-3.086-2.618.3-1.34 1.294-2.215 4.357-2.217a39.17 39.17 0 0113.169 2.434l1.84-11.184a42.5 42.5 0 00-13.873-2.026c-11.882.011-18.394 4.734-20.305 13.239-1.637 7.281.614 10.89 8.135 12.572L500.1 61.8c2.564.581 3.155 1.221 2.88 2.444-.328 1.456-1.517 2.389-4.641 2.392a58.089 58.089 0 01-15.544-2.49l-.751 11.24a52.048 52.048 0 0014.89 2.142z" fill="#fff" fill-rule="evenodd"/></svg>