<svg xmlns="http://www.w3.org/2000/svg" width="600" height="200"><path data-name="A CHANCE TO WIN" d="M107.818 121.443l12.411-.011-5.095-34.132-11.95.011-20.394 34.155 12.257-.011 2.827-5.611 9.626-.009zm-6.01-13.406l4.719-9.367.531 9.363zm45.418 14.2a27.79 27.79 0 009.121-1.569l3.816-9.9a22.216 22.216 0 01-8.333 1.714c-4.821 0-6.277-2.189-4.939-8.14 1.348-6 3.8-8.245 8.623-8.249a12.653 12.653 0 016.774 1.8l1.566-9.706a20.946 20.946 0 00-8.58-1.748c-11.129.01-17.947 6.161-20.589 17.916s1.415 17.892 12.541 17.882zm40.147-35L184.6 99.575l-7.027.007 2.774-12.341-11.9.01-7.673 34.149 11.9-.011 2.839-12.633 7.026-.006-2.839 12.629 11.9-.011 7.675-34.144zm31.115 34.11l12.411-.011L225.8 87.2l-11.95.011-20.39 34.156 12.258-.011 2.826-5.611 9.626-.009zm-6.01-13.406l4.719-9.367.531 9.363zm49.038-20.77l-3.859 17.17-6.963-17.16-10.257.009-7.675 34.145 10.514-.01 3.859-17.17 6.963 17.161 10.257-.01 7.675-34.144zm22.548 34.947a27.849 27.849 0 009.121-1.569l3.815-9.9a22.212 22.212 0 01-8.333 1.714c-4.821 0-6.276-2.189-4.939-8.14 1.349-6 3.8-8.245 8.623-8.249a12.65 12.65 0 016.774 1.8l1.567-9.706a20.918 20.918 0 00-8.581-1.748c-11.129.01-17.947 6.16-20.589 17.916s1.413 17.889 12.542 17.879zm13.547-.841l26-.024 3.512-8.781-15.643.014.91-4.049 12.822-.011 1.973-8.78-12.821.011.844-3.756 14.924-.013 1.41-8.78-26.259.024zm76.913-34.207l-29.746.027-2.171 9.658 8.924-.008-5.5 24.486 11.9-.01 5.5-24.487 8.923-.008zm9.88 34.958c10.822-.01 17.285-5.039 20.179-17.916s-1.31-17.9-12.131-17.887-17.285 5.038-20.179 17.916 1.31 17.894 12.127 17.884zm2.127-9.463c-2.615 0-3.565-1.7-2.052-8.435 1.524-6.78 3.23-8.44 5.846-8.442s3.576 1.655 2.052 8.435c-1.513 6.728-3.23 8.437-5.846 8.439zM455.144 87l-6.836 19.465L445.349 87h-3.283l-11.792 19.615 1.894-19.607-12.052.011-1.059 34.139 11.9-.011 8-13.711 1.791 13.7 11.9-.011 14.239-34.151zm6.395 34.132l12-.011 7.675-34.144-12 .01zm45.33-34.178l-3.859 17.17-6.962-17.161-10.257.009-7.675 34.145 10.513-.009 3.86-17.17 6.962 17.16 10.257-.009 7.675-34.145z" fill="#fff" fill-rule="evenodd"/></svg>