<svg id="frame2-line1b.svg" xmlns="http://www.w3.org/2000/svg" width="300" height="60" viewBox="0 0 300 60">
  <defs>
    <style>
      .cls-1 {
        fill: red;
        opacity: 0.25;
      }

      .cls-2 {
        fill: #fff;
        fill-rule: evenodd;
      }
    </style>
  </defs>
  
  <path id="letter" class="cls-2" d="M182.564,98.581a4.807,4.807,0,0,0-2.118.446,3.841,3.841,0,0,0-1.41,1.081V98.7h-2.295v11.755h2.368v-7.7a4.38,4.38,0,0,1,1.5-1.447,3.78,3.78,0,0,1,1.935-.531,4.937,4.937,0,0,1,.83.086V98.63a6.308,6.308,0,0,0-.805-0.049h0Zm0.766,15.381h1.623l3-6.507H185.2Z" transform="translate(0 -70)"/>
  <path id="letter-2" data-name="letter" class="cls-2" d="M173.79,104.587a6.289,6.289,0,0,0-1.581-4.377,5.155,5.155,0,0,0-4-1.751,5.471,5.471,0,0,0-4.169,1.733,6.714,6.714,0,0,0,.013,8.783,5.557,5.557,0,0,0,4.217,1.727,6.314,6.314,0,0,0,5.017-2.2l-1.4-1.452a5,5,0,0,1-3.515,1.525,3.467,3.467,0,0,1-2.533-.988,3.861,3.861,0,0,1-1.141-2.5h9.069a4.379,4.379,0,0,0,.025-0.5h0Zm-3.632-3.333a3.3,3.3,0,0,1,1.154,1.831h-6.4a3.361,3.361,0,0,1,1.227-1.843,3.31,3.31,0,0,1,2.069-.708A3.016,3.016,0,0,1,170.158,101.254Z" transform="translate(0 -70)"/>
  <path id="letter-3" data-name="letter" class="cls-2" d="M158.6,108.53a1.586,1.586,0,0,1-1.27-.525,2.612,2.612,0,0,1-.378-1.6v-5.567h3.5V98.7h-3.5V94.931h-2.38V98.7H151.82v2.136h2.747v5.493a4.742,4.742,0,0,0,.805,3.028,3.586,3.586,0,0,0,1.312.988,4.021,4.021,0,0,0,1.667.354,4.613,4.613,0,0,0,2.6-.793l-0.928-1.807a2.739,2.739,0,0,1-1.428.428h0Z" transform="translate(0 -70)"/>
  <path id="letter-4" data-name="letter" class="cls-2" d="M150.163,105.643a2.813,2.813,0,0,0-.916-1.026,6.694,6.694,0,0,0-1.239-.641,11.646,11.646,0,0,0-1.355-.445c-0.451-.118-0.865-0.238-1.239-0.36a2.846,2.846,0,0,1-.915-0.47,0.861,0.861,0,0,1-.354-0.69,1.229,1.229,0,0,1,.616-1.074,2.7,2.7,0,0,1,1.508-.4,4.571,4.571,0,0,1,2.6.854l1.147-1.635a6.184,6.184,0,0,0-3.894-1.294,5.7,5.7,0,0,0-1.568.214,5.034,5.034,0,0,0-1.386.629,3.019,3.019,0,0,0-1.013,1.117,3.306,3.306,0,0,0-.378,1.593,3.021,3.021,0,0,0,.354,1.5,2.627,2.627,0,0,0,.915.983,6.773,6.773,0,0,0,1.239.6,13.022,13.022,0,0,0,1.355.421q0.678,0.171,1.239.361a2.614,2.614,0,0,1,.916.506,1.009,1.009,0,0,1,.354.781,1.22,1.22,0,0,1-.617,1.062,2.559,2.559,0,0,1-1.434.4,5.759,5.759,0,0,1-3.479-1.172l-1.221,1.624a7.215,7.215,0,0,0,4.749,1.623,4.961,4.961,0,0,0,3.076-.976,3.064,3.064,0,0,0,1.294-2.564A3.138,3.138,0,0,0,150.163,105.643Z" transform="translate(0 -70)"/>
  <path id="letter-5" data-name="letter" class="cls-2" d="M138.484,110.458V98.7h-2.3v1.086a5.433,5.433,0,0,0-3.675-1.331,5.55,5.55,0,0,0-2.881.745,6.333,6.333,0,0,0-2.209,8.515,6.038,6.038,0,0,0,2.185,2.215,5.711,5.711,0,0,0,2.954.769,5.22,5.22,0,0,0,3.626-1.318v1.074h2.3Zm-3.833-2.441a3.825,3.825,0,0,1-1.77.439,3.833,3.833,0,0,1-3.894-3.869,3.9,3.9,0,0,1,1.055-2.735,3.525,3.525,0,0,1,2.716-1.147,4.018,4.018,0,0,1,1.9.458,4.29,4.29,0,0,1,1.446,1.214v4.407A4.226,4.226,0,0,1,134.651,108.017Z" transform="translate(0 -70)"/>
  <path id="letter-6" data-name="letter" class="cls-2" d="M123.325,92.453a3.867,3.867,0,0,0-2.526.879,4.247,4.247,0,0,0-1.355,3.5V98.7H116.7v2.136h2.747v9.619h2.38v-9.619h3.5V98.7h-3.5V96.762a2.417,2.417,0,0,1,.354-1.477,1.549,1.549,0,0,1,1.294-.574,2.528,2.528,0,0,1,1.33.4l1.026-1.782a4.064,4.064,0,0,0-2.5-.879h0Z" transform="translate(0 -70)"/>
</svg>
