<svg id="frame3-line1b.svg" xmlns="http://www.w3.org/2000/svg" width="300" height="50" viewBox="0 0 300 50">
  <defs>
    <style>
      .cls-1 {
        fill: red;
        opacity: 0.25;
      }

      .cls-2 {
        fill: #fff;
        fill-rule: evenodd;
      }
    </style>
  </defs>
  
  <path id="letter" class="cls-2" d="M264.693,94.587a6.288,6.288,0,0,0-1.581-4.376,5.152,5.152,0,0,0-4-1.752,5.469,5.469,0,0,0-4.169,1.733,6.712,6.712,0,0,0,.012,8.783,5.561,5.561,0,0,0,4.218,1.727,6.316,6.316,0,0,0,5.017-2.2l-1.4-1.453a5,5,0,0,1-3.516,1.526,3.47,3.47,0,0,1-2.533-.989,3.866,3.866,0,0,1-1.141-2.5h9.07a4.653,4.653,0,0,0,.024-0.5h0Zm-3.631-3.332a3.3,3.3,0,0,1,1.153,1.831h-6.4a3.357,3.357,0,0,1,1.227-1.843,3.311,3.311,0,0,1,2.069-.708A3.015,3.015,0,0,1,261.062,91.254Z" transform="translate(0 -70)"/>
  <path id="letter-2" data-name="letter" class="cls-2" d="M247.057,100.458l5.1-11.755h-2.43l-3.479,8.032L242.785,88.7h-2.478l5.1,11.755h1.648Z" transform="translate(0 -70)"/>
  <path id="letter-3" data-name="letter" class="cls-2" d="M233.1,100.7a5.871,5.871,0,0,0,4.346-1.745,6.384,6.384,0,0,0,0-8.746,6.267,6.267,0,0,0-8.692,0,6.384,6.384,0,0,0,0,8.746A5.873,5.873,0,0,0,233.1,100.7Zm0-10a3.467,3.467,0,0,1,2.655,1.123,4.159,4.159,0,0,1,0,5.511,3.714,3.714,0,0,1-5.31,0,4.159,4.159,0,0,1,0-5.511A3.467,3.467,0,0,1,233.1,90.7Z" transform="translate(0 -70)"/>
  <path id="letter-4" data-name="letter" class="cls-2" d="M204.521,100.458h2.369V92.377a5.249,5.249,0,0,1,1.446-1.184A3.711,3.711,0,0,1,210.2,90.7a3.007,3.007,0,0,1,1.269.275,2.84,2.84,0,0,1,1,.751,3.536,3.536,0,0,1,.672,2.356v6.372h2.38V94.452a10.01,10.01,0,0,0-.2-2.075A4.853,4.853,0,0,1,218.9,90.7a2.754,2.754,0,0,1,2.2,1.025,3.542,3.542,0,0,1,.671,2.356v6.372h2.38V94.452a9.024,9.024,0,0,0-.262-2.386,4.615,4.615,0,0,0-.812-1.63,5.224,5.224,0,0,0-1.837-1.453,5.331,5.331,0,0,0-2.338-.525,5.641,5.641,0,0,0-2.508.513,7.439,7.439,0,0,0-1.972,1.44,5.539,5.539,0,0,0-1.825-1.428,5.2,5.2,0,0,0-2.325-.525,4.831,4.831,0,0,0-2.051.446,4.338,4.338,0,0,0-1.4.934V88.7h-2.3v11.755Z" transform="translate(0 -70)"/>
</svg>
