<svg xmlns="http://www.w3.org/2000/svg" width="436" height="69" viewBox="0 0 436 69">
  <defs>
    <style>
      .cls-1 {
        fill: #fff;
        fill-rule: evenodd;
      }
    </style>
  </defs>
  <path id="xfinity-mobile-logo.svg" class="cls-1" d="M81.813,269.006l13.77-18.61-12.63-17.138c2.841,0.064,5.5-.474,7.992.509A7.013,7.013,0,0,1,93.666,236c1.94,2.489,3.724,5.1,5.571,7.661,0.25,0.347.511,0.687,0.827,1.11,2.119-2.844,4.241-5.549,6.2-8.368a6.911,6.911,0,0,1,6.317-3.175c1.5,0.046,3.007.008,4.8,0.008L104.592,250.4l24.8,33.83c-2.388,0-4.609.106-6.815-.033a5.5,5.5,0,0,1-4.073-2.667q-8.794-12.211-17.632-24.393c-0.251-.347-0.511-0.688-0.829-1.116-2.576,3.411-5.119,6.7-7.568,10.051a6.415,6.415,0,0,1-5.912,2.953C85.068,268.932,83.563,269.006,81.813,269.006Zm278.571,0c-0.71,0-1.345.007-1.98,0a2.146,2.146,0,0,1-2.417-2.443c-0.011-5.4.04-10.8-.03-16.2a25.631,25.631,0,0,0-.554-5.35c-1.482-6.493-8.262-9.906-14.655-7.455a14.93,14.93,0,0,0-7.756,7,2.076,2.076,0,0,0-.219,1.014c0.1,4.834.241,9.667,0.322,14.5,0.049,2.915.009,5.83,0.009,8.891a22.279,22.279,0,0,1-2.9-.026c-1.106-.148-1.658-1.125-1.66-2.689-0.009-5.4.013-10.8-.016-16.2a33.982,33.982,0,0,0-.266-3.7c-0.853-7.37-8.227-11.666-15.537-8.519a18.031,18.031,0,0,0-4.539,3.047,7.183,7.183,0,0,0-2.59,5.992c0.195,6.835.066,13.679,0.066,20.52v1.525h-4.488V233.327H305.5v4.5c7.489-8.237,20.671-6.419,25.093,1.436,1.139-.905,2.459-1.886,3.706-2.954,7.349-6.292,19.027-4.647,23.881,3.39a17.254,17.254,0,0,1,2.263,8.961c0.06,6.56.018,13.121,0.014,19.681C360.458,268.5,360.424,268.659,360.384,269.006Zm-187.971-.061h-7.139V233.319h7.092v3.319l1.177-.858a16.171,16.171,0,0,1,14.2-2.711c5.511,1.422,9.462,6.371,10.1,12.411a34.639,34.639,0,0,1,.195,3.586c0.019,6.159.009,12.317,0.009,18.475v1.4a44.174,44.174,0,0,1-4.843-.042,2.722,2.722,0,0,1-2.306-2.315,8.376,8.376,0,0,1-.13-1.787c-0.028-5.437.028-10.876-.089-16.311-0.075-3.511-1.275-6.595-4.694-8.154-3.682-1.679-7.249-1.077-10.57,1.148a13.531,13.531,0,0,0-1.115.906,5.052,5.052,0,0,0-1.95,4.338c0.139,6.955.055,13.915,0.055,20.873v1.347Zm75.115-35.8c2.041,0.1,3.876.123,5.691,0.315a4.166,4.166,0,0,1,3.478,2.595c2.865,6.195,5.757,12.377,8.714,18.726,0.253-.425.452-0.733,0.626-1.056,3.052-5.658,6.161-11.287,9.117-16.994a5.72,5.72,0,0,1,5.285-3.456c1.394-.036,2.789-0.006,4.358-0.006-0.176.4-.291,0.713-0.449,1.006q-12.69,23.508-25.377,47.017A5.56,5.56,0,0,1,254,284.3c-1.473.079-2.955,0.015-4.653,0.015,0.23-.469.394-0.84,0.588-1.195q5.38-9.825,10.783-19.639a2,2,0,0,0,.066-2.084q-6.405-13.464-12.726-26.969C247.908,234.1,247.787,233.77,247.528,233.143Zm170.2-17.48V237.78a6.382,6.382,0,0,0,.681-0.46,17.831,17.831,0,0,1,29.511,8.742c2.475,9.71-2.17,19.335-11.152,22.47-6.909,2.411-13.313,1.474-18.612-4.041-0.1-.1-0.215-0.193-0.528-0.471v4.9h-4.446v-1.283q0-24.422-.026-48.842a1.587,1.587,0,0,1,1.241-1.809C415.489,216.635,416.535,216.146,417.731,215.663Zm0.017,35.156c0,2-.015,4,0.011,5.994a2.513,2.513,0,0,0,.264,1.254c2.619,4.136,6.223,6.872,11.211,7.278A13.355,13.355,0,0,0,443.07,256.6c2.284-6.11.485-13.351-4.283-16.969-7.252-5.5-16.372-2.4-20.7,3.852a2.555,2.555,0,0,0-.324,1.345C417.728,246.823,417.748,248.821,417.748,250.819Zm-283.309,18.14h-7.308V239.833H118.71c1.615-2.278,3.037-4.318,4.514-6.317a1.438,1.438,0,0,1,.971-0.27c0.91-.036,1.823-0.013,2.786-0.013,0.107-1.833.1-3.589,0.33-5.312,1.312-9.638,9.23-13.533,17.424-11.715a5.134,5.134,0,0,1,.792.324c-0.5,2.131-.984,4.216-1.451,6.222-1.123-.057-2.114-0.171-3.1-0.144a6.119,6.119,0,0,0-6.057,4.714,46.071,46.071,0,0,0-.735,5.892h9.348v6.538h-9.091v29.207ZM244.5,239.819H234.478c0,6.009-.2,11.885.076,17.737,0.168,3.52,2.713,5.4,6.283,5.4,1.11,0,2.22-.133,3.439-0.211,0.476,2.048.951,4.089,1.419,6.105-8.557,3.837-18.449-2.373-18.549-11.555-0.058-5.359-.011-10.719-0.011-16.078v-1.4h-7.6v-6.545h7.6c0-2.928.171-5.73-.056-8.5-0.171-2.088.442-3.207,2.462-3.81a45.713,45.713,0,0,0,4.805-2.041v14.315c2.117,0,4.067.037,6.014-.017a1.437,1.437,0,0,1,1.626,1C242.725,236.023,243.576,237.784,244.5,239.819Zm272.766,22.762a18.946,18.946,0,0,1-20.98,6.159,17.778,17.778,0,0,1-11.864-17.04c-0.043-5.463,1.388-10.377,5.305-14.315,4.691-4.717,10.411-5.973,16.669-4.122,6.128,1.812,9.716,6.218,11.124,12.367a52.021,52.021,0,0,1,.67,5.841H489.076c-0.61,5.917,4.174,12.375,10.075,13.6a14.241,14.241,0,0,0,12.592-3.012C513.973,260.2,515.213,260.307,517.263,262.581Zm-4.055-15.255C513,242,507.73,237.008,502.178,236.8c-6.4-.242-12.158,4.437-12.888,10.528h23.918ZM404.786,251.11a18.15,18.15,0,0,1-18.576,18.576c-10.285,0-18.158-8.148-18.147-18.77,0.01-10.516,8.064-18.418,18.758-18.4C396.846,232.527,404.79,240.751,404.786,251.11Zm-4.493.055c-0.026-.42-0.056-0.9-0.084-1.376a13.8,13.8,0,0,0-17.279-12.565c-6.507,1.7-10.574,7.485-10.343,14.72A13.855,13.855,0,0,0,390.27,264.9C396.222,263.212,400.1,257.922,400.293,251.165ZM213.741,268.948h-7.183V233.326h7.183v35.622ZM149.407,233.3h7.071v35.631h-7.071V233.3ZM476.184,268.96h-4.515v-1.252q0-24.485-.022-48.968A1.492,1.492,0,0,1,472.8,217c1.128-.349,2.206-0.858,3.383-1.329V268.96Zm-15.421,0h-4.32V233.329h4.32v35.626ZM385.9,218.073a20.787,20.787,0,0,1,14.413,5.466,5.15,5.15,0,0,1,1.174,1.484,2.281,2.281,0,0,1-.793,2.775,2.356,2.356,0,0,1-2.9,0c-0.551-.388-1.009-0.907-1.536-1.334a15.8,15.8,0,0,0-20.727.747,4.44,4.44,0,0,1-1.245.9,2.418,2.418,0,0,1-2.871-.876,2.5,2.5,0,0,1,.375-3.178,20.165,20.165,0,0,1,11.6-5.749C384.332,218.179,385.291,218.129,385.9,218.073Zm0.111,66.039a20.254,20.254,0,0,1-13.782-5.537,4.275,4.275,0,0,1-1.064-1.411,2.358,2.358,0,0,1,.922-2.847,2.492,2.492,0,0,1,3.085.338,15.307,15.307,0,0,0,6.511,3.9,15.54,15.54,0,0,0,15.642-3.756,2.618,2.618,0,0,1,3.168-.533,2.3,2.3,0,0,1,1.065,2.685,4.754,4.754,0,0,1-1.23,1.717A20.553,20.553,0,0,1,386.012,284.112Zm72.6-57.64a2.938,2.938,0,1,1,2.975-2.959A2.948,2.948,0,0,1,458.608,226.472Z" transform="translate(-81.813 -215.656)"/>
</svg>
