<svg id="frame3-line2b.svg" xmlns="http://www.w3.org/2000/svg" width="300" height="60" viewBox="0 0 300 60">
  <defs>
    <style>
      .cls-1 {
        fill: red;
        opacity: 0.25;
      }

      .cls-1, .cls-2 {
        fill-rule: evenodd;
      }

      .cls-2 {
        fill: #fff;
      }
    </style>
  </defs>
  
  <path id="letter" class="cls-2" d="M221.919,192.612a8.688,8.688,0,0,0-2.272-6.136,7.5,7.5,0,0,0-5.748-2.456,7.961,7.961,0,0,0-5.993,2.43,9.238,9.238,0,0,0,.017,12.315,8.1,8.1,0,0,0,6.064,2.421,9.187,9.187,0,0,0,7.213-3.08l-2.018-2.037a7.274,7.274,0,0,1-5.055,2.139,5.053,5.053,0,0,1-3.641-1.386,5.352,5.352,0,0,1-1.641-3.509h13.039a6.344,6.344,0,0,0,.035-0.7h0Zm-5.221-4.673a4.622,4.622,0,0,1,1.659,2.568h-9.2a4.707,4.707,0,0,1,1.763-2.585,4.845,4.845,0,0,1,2.975-.992A4.4,4.4,0,0,1,216.7,187.939Z" transform="translate(0 -160.062)"/>
  <path id="letter-2" data-name="letter" class="cls-2" d="M196.384,200.844l7.336-16.482h-3.492l-5,11.262-4.984-11.262h-3.563l7.336,16.482h2.369Z" transform="translate(0 -160.062)"/>
  <path id="letter-3" data-name="letter" class="cls-2" d="M176.132,201.186a8.553,8.553,0,0,0,6.247-2.447,8.787,8.787,0,0,0,0-12.263,9.174,9.174,0,0,0-12.5,0,8.789,8.789,0,0,0,0,12.263A8.554,8.554,0,0,0,176.132,201.186Zm0-14.017a5.045,5.045,0,0,1,3.817,1.575,5.726,5.726,0,0,1,0,7.727,5.435,5.435,0,0,1-7.634,0,5.723,5.723,0,0,1,0-7.727A5.042,5.042,0,0,1,176.132,187.169Z" transform="translate(0 -160.062)"/>
  <path id="letter-4" data-name="letter" class="cls-2" d="M134.872,200.844h3.4v-11.33a7.528,7.528,0,0,1,2.079-1.66,5.445,5.445,0,0,1,2.677-.685,4.426,4.426,0,0,1,1.825.385,4.091,4.091,0,0,1,1.439,1.053,4.877,4.877,0,0,1,.965,3.3v8.934h3.422v-8.421a13.694,13.694,0,0,0-.28-2.909,7.052,7.052,0,0,1,5.142-2.345,4,4,0,0,1,3.159,1.438,4.877,4.877,0,0,1,.965,3.3v8.934h3.422v-8.421a12.379,12.379,0,0,0-.377-3.346,6.418,6.418,0,0,0-1.167-2.284,7.493,7.493,0,0,0-2.641-2.037,7.823,7.823,0,0,0-3.361-.736,8.293,8.293,0,0,0-3.607.719,10.672,10.672,0,0,0-2.834,2.019,7.956,7.956,0,0,0-2.624-2,7.629,7.629,0,0,0-3.343-.736,7.085,7.085,0,0,0-2.948.625,6.244,6.244,0,0,0-2.019,1.309v-1.592h-3.3v16.482Z" transform="translate(0 -160.062)"/>
</svg>
