<svg id="frame2-line2.svg" xmlns="http://www.w3.org/2000/svg" width="160" height="60" viewBox="0 0 160 60">
  <defs>
    <style>
      .cls-1 {
        fill: red;
        opacity: 0.25;
      }

      .cls-2 {
        fill: #fff;
        fill-rule: evenodd;
      }
    </style>
  </defs>
  
  <path id="letter" class="cls-2" d="M122.431,252.405a5.218,5.218,0,0,0-2.251.462,4.071,4.071,0,0,0-1.5,1.12v-1.456h-2.439v12.187h2.517v-7.985a4.605,4.605,0,0,1,1.589-1.5,4.093,4.093,0,0,1,2.057-.55,5.376,5.376,0,0,1,.882.088v-2.315a6.806,6.806,0,0,0-.856-0.051h0Zm0.947,15.945H125.1l3.192-6.745h-2.933Z" transform="translate(0 -228)"/>
  <path id="letter-2" data-name="letter" class="cls-2" d="M112.972,258.631a6.426,6.426,0,0,0-1.68-4.537,5.544,5.544,0,0,0-4.25-1.816,5.887,5.887,0,0,0-4.431,1.8,6.83,6.83,0,0,0,.013,9.105,5.986,5.986,0,0,0,4.483,1.791,6.789,6.789,0,0,0,5.333-2.278l-1.492-1.506a5.376,5.376,0,0,1-3.737,1.582,3.74,3.74,0,0,1-2.693-1.025,3.963,3.963,0,0,1-1.213-2.594h9.641a4.7,4.7,0,0,0,.026-0.519h0Zm-3.86-3.455a3.413,3.413,0,0,1,1.226,1.9h-6.8a3.48,3.48,0,0,1,1.3-1.91,3.572,3.572,0,0,1,2.2-.734A3.259,3.259,0,0,1,109.112,255.176Z" transform="translate(0 -228)"/>
  <path id="letter-3" data-name="letter" class="cls-2" d="M96.688,262.718a1.7,1.7,0,0,1-1.349-.544,2.651,2.651,0,0,1-.4-1.658v-5.77H98.66v-2.215H94.936v-3.91h-2.53v3.91H89.487v2.215h2.919v5.695a4.821,4.821,0,0,0,.856,3.138,3.8,3.8,0,0,0,1.395,1.025,4.373,4.373,0,0,0,1.771.367,4.986,4.986,0,0,0,2.764-.823l-0.986-1.873a2.959,2.959,0,0,1-1.518.443h0Z" transform="translate(0 -228)"/>
  <path id="letter-4" data-name="letter" class="cls-2" d="M87.592,259.726a2.929,2.929,0,0,0-.973-1.063A7.179,7.179,0,0,0,85.3,258a12.928,12.928,0,0,0-1.44-.462q-0.72-.183-1.317-0.373a3.06,3.06,0,0,1-.973-0.487,0.886,0.886,0,0,1-.376-0.715,1.271,1.271,0,0,1,.655-1.114,2.925,2.925,0,0,1,1.6-.417,4.941,4.941,0,0,1,2.764.885l1.22-1.695a6.684,6.684,0,0,0-4.139-1.342,6.191,6.191,0,0,0-1.667.222,5.418,5.418,0,0,0-1.473.652,3.149,3.149,0,0,0-1.077,1.157,3.36,3.36,0,0,0-.4,1.652,3.078,3.078,0,0,0,.376,1.556,2.757,2.757,0,0,0,.973,1.019,7.4,7.4,0,0,0,1.317.62,14.363,14.363,0,0,0,1.44.437q0.72,0.177,1.317.373a2.788,2.788,0,0,1,.973.525,1.037,1.037,0,0,1,.376.81,1.259,1.259,0,0,1-.655,1.1,2.779,2.779,0,0,1-1.525.418,6.227,6.227,0,0,1-3.7-1.215l-1.3,1.683a7.792,7.792,0,0,0,5.047,1.683,5.357,5.357,0,0,0,3.27-1.013,3.147,3.147,0,0,0,1.375-2.657A3.188,3.188,0,0,0,87.592,259.726Z" transform="translate(0 -228)"/>
  <path id="letter-5" data-name="letter" class="cls-2" d="M75.045,264.718V252.531H72.606v1.127a5.858,5.858,0,0,0-3.906-1.38,6.017,6.017,0,0,0-3.062.772,6.4,6.4,0,0,0-2.335,2.316,6.489,6.489,0,0,0-.013,6.511,6.343,6.343,0,0,0,2.323,2.3,6.2,6.2,0,0,0,3.14.8,5.633,5.633,0,0,0,3.854-1.367v1.114h2.439Zm-4.074-2.531a4.143,4.143,0,0,1-1.881.455,4.021,4.021,0,0,1-2.958-1.176,3.859,3.859,0,0,1-1.181-2.835,3.988,3.988,0,0,1,1.122-2.835,3.791,3.791,0,0,1,2.887-1.189,4.371,4.371,0,0,1,2.018.474,4.54,4.54,0,0,1,1.537,1.259v4.569A4.467,4.467,0,0,1,70.971,262.187Z" transform="translate(0 -228)"/>
  <path id="letter-6" data-name="letter" class="cls-2" d="M58.8,246.052a4.179,4.179,0,0,0-2.686.911,4.351,4.351,0,0,0-1.44,3.632v1.936H51.755v2.215h2.919v9.972H57.2v-9.972h3.724v-2.215H57.2v-2.012a2.457,2.457,0,0,1,.376-1.531,1.667,1.667,0,0,1,1.375-.595,2.742,2.742,0,0,1,1.414.418l1.09-1.848a4.39,4.39,0,0,0-2.66-.911h0Z" transform="translate(0 -228)"/>
  <path id="letter-7" data-name="letter" class="cls-2" d="M42.685,264.718V252.531H40.246v1.127a5.858,5.858,0,0,0-3.906-1.38,6.017,6.017,0,0,0-3.062.772,6.4,6.4,0,0,0-2.335,2.316,6.489,6.489,0,0,0-.013,6.511,6.343,6.343,0,0,0,2.323,2.3,6.2,6.2,0,0,0,3.14.8,5.633,5.633,0,0,0,3.854-1.367v1.114h2.439Zm-4.074-2.531a4.143,4.143,0,0,1-1.881.455,4.021,4.021,0,0,1-2.958-1.176,3.859,3.859,0,0,1-1.181-2.835,3.988,3.988,0,0,1,1.122-2.835,3.791,3.791,0,0,1,2.887-1.189,4.371,4.371,0,0,1,2.018.474,4.54,4.54,0,0,1,1.538,1.259v4.569A4.467,4.467,0,0,1,38.611,262.187Z" transform="translate(0 -228)"/>
</svg>
