<svg id="frame3-line2b.svg" xmlns="http://www.w3.org/2000/svg" width="160" height="44" viewBox="0 0 160 44">
  <defs>
    <style>
      .cls-1 {
        fill: red;
        opacity: 0.25;
      }

      .cls-1, .cls-2 {
        fill-rule: evenodd;
      }

      .cls-2 {
        fill: #fff;
      }
    </style>
  </defs>
  
  <path id="letter" class="cls-2" d="M132.883,244.538A6.425,6.425,0,0,0,131.2,240a5.541,5.541,0,0,0-4.251-1.816,5.891,5.891,0,0,0-4.433,1.8,6.831,6.831,0,0,0,.013,9.108,5.987,5.987,0,0,0,4.485,1.792,6.793,6.793,0,0,0,5.335-2.279l-1.493-1.506a5.376,5.376,0,0,1-3.738,1.582,3.742,3.742,0,0,1-2.694-1.025,3.963,3.963,0,0,1-1.213-2.595h9.644a4.471,4.471,0,0,0,.026-0.519h0Zm-3.861-3.456a3.412,3.412,0,0,1,1.226,1.9h-6.8a3.487,3.487,0,0,1,1.305-1.912,3.581,3.581,0,0,1,2.2-.734A3.257,3.257,0,0,1,129.022,241.082Z" transform="translate(0 -220.469)"/>
  <path id="letter-2" data-name="letter" class="cls-2" d="M114,250.627l5.425-12.191h-2.583l-3.7,8.33-3.687-8.33h-2.635l5.426,12.191H114Z" transform="translate(0 -220.469)"/>
  <path id="letter-3" data-name="letter" class="cls-2" d="M99.017,250.88a6.331,6.331,0,0,0,4.621-1.81,6.5,6.5,0,0,0,0-9.071,6.788,6.788,0,0,0-9.242,0,6.5,6.5,0,0,0,0,9.071A6.331,6.331,0,0,0,99.017,250.88Zm0-10.368a3.729,3.729,0,0,1,2.823,1.165,4.233,4.233,0,0,1,0,5.715,4.02,4.02,0,0,1-5.646,0,4.234,4.234,0,0,1,0-5.715A3.729,3.729,0,0,1,99.017,240.512Z" transform="translate(0 -220.469)"/>
  <path id="letter-4" data-name="letter" class="cls-2" d="M68.5,250.627h2.518v-8.381a5.577,5.577,0,0,1,1.538-1.228,4.029,4.029,0,0,1,1.98-.506,3.264,3.264,0,0,1,1.35.285,3.025,3.025,0,0,1,1.064.778,3.61,3.61,0,0,1,.714,2.444v6.608h2.531V244.4a10.131,10.131,0,0,0-.208-2.152,5.217,5.217,0,0,1,3.8-1.734,2.957,2.957,0,0,1,2.337,1.063,3.61,3.61,0,0,1,.714,2.444v6.608h2.531V244.4a9.129,9.129,0,0,0-.279-2.474,4.735,4.735,0,0,0-.863-1.69,5.532,5.532,0,0,0-1.954-1.507,5.785,5.785,0,0,0-2.486-.544,6.135,6.135,0,0,0-2.668.531,7.914,7.914,0,0,0-2.1,1.494,5.886,5.886,0,0,0-1.941-1.481,5.646,5.646,0,0,0-2.473-.544,5.247,5.247,0,0,0-2.181.462,4.624,4.624,0,0,0-1.493.968v-1.177H68.5v12.191Z" transform="translate(0 -220.469)"/>
</svg>
