<svg id="frame2-line1a.svg" xmlns="http://www.w3.org/2000/svg" width="200" height="50" viewBox="0 0 200 50">
  <defs>
    <style>
      .cls-1, .cls-2 {
        fill: #fff;
      }

      .cls-1 {
        opacity: 0;
      }

      .cls-2 {
        fill-rule: evenodd;
      }
    </style>
  </defs>
  
  <path id="letter" class="cls-2" d="M109.474,25.645a3.664,3.664,0,0,0-.925-2.553,3.021,3.021,0,0,0-2.34-1.022,3.206,3.206,0,0,0-2.439,1.011,3.906,3.906,0,0,0,.007,5.123,3.258,3.258,0,0,0,2.468,1.008,3.7,3.7,0,0,0,2.936-1.282l-0.822-.847a2.926,2.926,0,0,1-2.057.89,2.033,2.033,0,0,1-1.482-.577,2.248,2.248,0,0,1-.668-1.46h5.307a2.534,2.534,0,0,0,.015-0.292h0ZM107.349,23.7a1.927,1.927,0,0,1,.675,1.068h-3.743a2,2,0,0,1,1.928-1.488A1.769,1.769,0,0,1,107.349,23.7Z"/>
  <path id="letter-2" data-name="letter" class="cls-2" d="M99.464,29.07l2.986-6.857h-1.422L98.993,26.9l-2.029-4.686h-1.45L98.5,29.07h0.964Z"/>
  <path id="letter-3" data-name="letter" class="cls-2" d="M91.6,29.212a3.474,3.474,0,0,0,3.557-3.568,3.477,3.477,0,0,0-1.014-2.553,3.675,3.675,0,0,0-5.086,0,3.715,3.715,0,0,0,0,5.1A3.442,3.442,0,0,0,91.6,29.212Zm0-5.832a2.032,2.032,0,0,1,1.554.655,2.421,2.421,0,0,1,0,3.215,2.178,2.178,0,0,1-3.107,0,2.421,2.421,0,0,1,0-3.215A2.031,2.031,0,0,1,91.6,23.38Z"/>
  <path id="letter-4" data-name="letter" class="cls-2" d="M75.177,29.07h1.386V24.356a3.078,3.078,0,0,1,.847-0.691A2.177,2.177,0,0,1,78.5,23.38a1.763,1.763,0,0,1,.743.16,1.666,1.666,0,0,1,.586.438,2.06,2.06,0,0,1,.393,1.374V29.07h1.393v-3.5a5.811,5.811,0,0,0-.114-1.21,2.844,2.844,0,0,1,2.093-.976,1.613,1.613,0,0,1,1.286.6,2.06,2.06,0,0,1,.393,1.374V29.07h1.393v-3.5a5.247,5.247,0,0,0-.154-1.392,2.686,2.686,0,0,0-.475-0.951,3.058,3.058,0,0,0-1.075-.847,3.128,3.128,0,0,0-1.368-.306,3.309,3.309,0,0,0-1.468.3,4.349,4.349,0,0,0-1.154.84,3.244,3.244,0,0,0-1.068-.833,3.053,3.053,0,0,0-1.361-.306,2.835,2.835,0,0,0-1.2.26,2.538,2.538,0,0,0-.822.545V22.212H75.177V29.07Z"/>
</svg>
