<svg xmlns="http://www.w3.org/2000/svg" width="640" height="100"><path data-name="EVERY PACK IS" d="M327.882 37.718l8.879-.008 1.2-3h-5.342l.311-1.383h4.378l.674-3h-4.378l.288-1.283h5.1l.482-3-8.967.008zm19.981-11.675l-3.189 6.631-.227-6.628h-4.325l1.389 11.656h4.011l6.614-11.664zm2.318 11.657l8.879-.008 1.2-3h-5.342l.311-1.383h4.378l.674-3h-4.378l.288-1.283h5.1l.482-3-8.967.008zm21.367-.019l-1.183-4.4A4.613 4.613 0 00372.8 30c.562-2.5-.594-3.98-3.711-3.977l-5.762.005-2.621 11.66h3.993l.846-3.765h.981l.713 3.763zm-4.9-8.656h1.4a.707.707 0 01.752 1.015 1.156 1.156 0 01-1.209 1.017h-1.4zm18.54-3.014h-4.343l-2.333 4.066-.505-4.063h-4.431l2.059 7.592-.914 4.064h4.1l.91-4.048zm1.565 11.656h3.994l.786-3.5h1.716c3.153 0 5-1.52 5.576-4.085S398.235 26 395.083 26l-5.71.005zm5.454-6.5l.485-2.167h1.384c.683 0 .9.416.755 1.082a1.222 1.222 0 01-1.242 1.084h-1.383zm12.521 6.484h4.238l-1.74-11.656h-4.08l-6.966 11.662h4.186l.965-1.916h3.288zm-2.052-4.578l1.611-3.2.181 3.2zm11.535 4.852a9.5 9.5 0 003.115-.536l1.3-3.382a7.585 7.585 0 01-2.846.585c-1.646 0-2.143-.748-1.686-2.78.46-2.049 1.3-2.816 2.944-2.817a4.322 4.322 0 012.314.614l.535-3.315a7.15 7.15 0 00-2.93-.6c-3.8 0-6.129 2.1-7.031 6.118s.484 6.115 4.284 6.112zm11.334-.293h4.519l-1.9-6.11 4.189-5.549h-4.343l-2.85 4.327h-.613l.974-4.331h-4.063l-2.621 11.66h4.063l1-4.431h.63zm8.635-.008h4.1l2.62-11.664h-4.1zm10.137.276c3.538 0 5.386-1.37 5.948-3.869.475-2.115-.211-3.114-2.281-3.562l-1.519-.332c-.751-.166-.976-.332-.882-.749.086-.383.37-.633 1.245-.634a11.2 11.2 0 013.766.7l.526-3.2a12.141 12.141 0 00-3.967-.579c-3.4 0-5.259 1.354-5.806 3.786-.468 2.082.175 3.114 2.326 3.6l1.55.348c.733.166.9.349.824.7-.094.416-.434.683-1.327.684a16.6 16.6 0 01-4.445-.712l-.215 3.214a14.888 14.888 0 004.257.605z" fill-rule="evenodd" fill="#fff"/></svg>